<svg width="65" height="60" viewBox="0 0 65 60" fill="none" xmlns="http://www.w3.org/2000/svg">
<path d="M28.5595 8.72413C28.4512 8.69449 28.3287 8.66773 28.1955 8.64406L27.0767 9.3312L26.2958 9.81072C26.2951 9.81119 26.2943 9.81165 26.2936 9.81212C24.5263 10.9257 23.8977 13.1706 24.8471 16.1079L24.8471 16.108C25.3893 17.7865 26.5546 19.7605 28.0598 21.6399C29.5621 23.5157 31.3779 25.2658 33.192 26.507L33.192 26.507L33.1956 26.5094L34.0392 27.0974L34.6137 27.4977C37.558 25.5897 40.236 22.8837 42.3375 19.6381L42.3381 19.6371C43.188 18.3309 43.7234 17.3404 44.0496 16.419C44.3725 15.5066 44.4973 14.6415 44.4973 13.5784H44.4973L44.4973 13.5729C44.5047 12.8982 44.4987 12.5732 44.4478 12.3029C44.3994 12.0465 44.3067 11.8203 44.0815 11.3535L44.0804 11.3512C43.5773 10.2947 42.8018 9.50142 41.6786 8.94693C41.2619 8.74398 40.6038 8.59047 39.8683 8.52905C39.1377 8.46805 38.3844 8.50241 37.793 8.63864L37.7915 8.63897C36.8081 8.86234 35.2258 9.6125 34.1932 10.3646L34.191 10.3661L33.3328 10.9842L33.0378 11.1966L32.7447 10.9815L32.0465 10.469L32.046 10.4686C31.0837 9.76032 29.5105 8.97756 28.5627 8.72499L28.5595 8.72413ZM33.2209 28.3086C33.0927 28.3318 32.97 28.3269 32.85 28.3022L33.1036 28.4289L33.3588 28.273C33.3155 28.2874 33.2695 28.2998 33.2209 28.3086ZM21.5243 12.945C21.4923 13.3244 21.4916 13.7303 21.5239 14.146C21.5137 13.957 21.5084 13.7689 21.5076 13.5841C21.5067 13.3677 21.5122 13.1532 21.5243 12.945Z" fill="#F8DCDC" stroke="black"/>
<rect x="0.5" y="0.5" width="64" height="59" rx="6.5" stroke="black"/>
<rect x="11.5" y="34.5" width="42" height="4" stroke="black"/>
<rect x="11.5" y="41.5" width="42" height="3" stroke="black"/>
<rect x="11.5" y="48.5" width="42" height="3" stroke="black"/>
</svg>
