<svg width="79" height="78" viewBox="0 0 79 78" fill="none" xmlns="http://www.w3.org/2000/svg">
<path d="M36.8892 19.7558C31.255 20.4292 26.1745 23.669 23.1591 28.5027C21.8048 30.6725 20.847 33.3811 20.5029 36.0075C20.3532 37.1747 20.3532 39.584 20.5029 40.7513C21.0491 44.904 22.8972 48.6751 25.8527 51.6231C28.2695 54.0474 31.2999 55.7684 34.5472 56.5615C36.2906 56.988 36.8593 57.0479 39.1339 57.0479C40.9896 57.0479 41.3412 57.0254 42.1867 56.8758C44.207 56.5091 45.9354 55.933 47.6638 55.0351C49.5194 54.0774 50.8887 53.0822 52.3403 51.6231C53.8667 50.1042 54.8469 48.7424 55.8645 46.7222C56.8222 44.8217 57.4059 42.9062 57.6902 40.7513C57.8398 39.584 57.8398 37.1747 57.6902 36.0075C57.144 31.8473 55.2958 28.0911 52.3403 25.1356C50.7765 23.5643 49.2576 22.4868 47.2149 21.4992C45.5463 20.6911 44.1396 20.2421 42.1867 19.8905C41.4759 19.7633 40.9372 19.7258 39.3958 19.7034C38.3483 19.6959 37.2185 19.7184 36.8892 19.7558ZM45.2919 25.8539L45.681 25.9063V27.8667V29.8345L44.0573 29.857C42.4486 29.8869 42.4187 29.8869 41.9997 30.0964C41.1467 30.5154 41.0419 30.8521 41.0419 33.2315V35.0123H43.2717H45.5089L45.2246 37.1972C45.0674 38.4018 44.9402 39.4119 44.9328 39.4419C44.9328 39.4793 44.0573 39.5017 42.9874 39.5017H41.0419V45.2631V51.0246H38.7224H36.4029V45.2631V39.5017H34.4575H32.512V37.257V35.0123H34.45H36.3879L36.4253 32.82C36.4702 30.4855 36.5226 30.0216 36.8817 29.0638C37.5327 27.3504 39.0292 26.1607 41.0045 25.809C41.3936 25.7417 44.5886 25.7716 45.2919 25.8539Z" fill="#404040"/>
<circle cx="39.5948" cy="38.9515" r="38.4515" stroke="#404040"/>
</svg>
