<svg width="62" height="70" viewBox="0 0 62 70" fill="none" xmlns="http://www.w3.org/2000/svg">
<path d="M24.9392 12.7371C24.8393 12.9993 24.7692 13.302 24.7206 13.6149C24.6524 14.0536 24.6208 14.5497 24.623 15.0565C24.6271 16.0622 24.7643 17.1625 25.0473 17.985L24.9392 12.7371ZM24.9392 12.7371C24.9275 12.7617 24.916 12.7864 24.9046 12.8112L24.9031 12.8143C24.3887 13.9146 24.3515 15.8045 24.8789 17.4952L24.8795 17.4972C24.9533 17.7375 25.0395 17.9845 25.1373 18.2371C25.1061 18.1528 25.0761 18.0688 25.0473 17.9851L24.9392 12.7371ZM28.3804 9.75531L28.3757 9.75676C27.3174 10.0855 26.386 10.7197 25.6899 11.5612C26.5563 10.5637 27.8274 9.8456 29.1583 9.61705C28.8343 9.64896 28.5645 9.69612 28.3804 9.75531ZM32.4443 9.79515C32.3139 9.76074 32.1659 9.72995 32.0048 9.70301L30.7356 10.4551L29.8648 10.9711C29.864 10.9716 29.8633 10.972 29.8625 10.9725C27.8665 12.1859 27.173 14.6178 28.2313 17.7771L28.2314 17.7772C28.837 19.5863 30.1381 21.7126 31.8178 23.7362C33.4941 25.7558 35.5213 27.6415 37.5485 28.9798L37.5485 28.9798L37.552 28.9821L38.4923 29.6144L39.1707 30.0705C42.4751 28.0127 45.4786 25.0883 47.8327 21.5804L47.8333 21.5794C48.7812 20.1736 49.3795 19.1061 49.744 18.1123C50.105 17.1281 50.2443 16.1952 50.2443 15.0504H50.2443L50.2444 15.0447C50.2526 14.3197 50.246 13.9681 50.1888 13.6751C50.1342 13.3961 50.0296 13.1502 49.7784 12.6478L49.7772 12.6455C49.2135 11.5033 48.3423 10.6418 47.0778 10.0393C46.6028 9.81602 45.8594 9.64959 45.0344 9.58313C44.2147 9.51708 43.3671 9.55399 42.6987 9.70253L42.6973 9.70284C41.5901 9.94551 39.8186 10.7567 38.6629 11.5688L38.6607 11.5703L37.7043 12.235L37.4162 12.4352L37.1299 12.2324L36.3518 11.6812L36.3513 11.6809C35.2742 10.916 33.5137 10.0701 32.4474 9.79595L32.4443 9.79515ZM38.8008 30.2965C38.878 30.2503 38.955 30.2035 39.0319 30.1564L38.4503 30.4695L38.0289 30.6965L38.0289 30.6965L38.0225 30.6998C37.9161 30.7552 37.7748 30.8247 37.6067 30.8541C37.4241 30.8861 37.2512 30.8649 37.0771 30.8104C36.7753 30.7159 36.3799 30.4868 35.789 30.1369C33.4649 28.8 31.1474 26.8178 29.2329 24.6544C28.7227 24.0779 28.2391 23.4862 27.7902 22.8879C28.967 24.4959 30.3769 26.0654 31.8638 27.3674L31.8638 27.3674L31.8657 27.369C33.1001 28.461 35.5746 30.136 36.8265 30.7465C36.8269 30.7467 36.8272 30.7469 36.8275 30.747L37.4926 31.0677L38.7993 30.2974C38.7998 30.2971 38.8003 30.2968 38.8008 30.2965Z" fill="#F8DCDC" stroke="black"/>
<path d="M23.9931 0.133861C19.8771 0.726439 16.4337 3.67331 15.4568 7.40495C15.2966 7.99753 15.2005 9.05456 15.1845 10.1436V11.9214L14.0794 11.4729C12.5419 10.8483 10.8603 10.528 9.09858 10.528C6.47201 10.528 4.35795 11.3448 2.51615 13.0745C-1.07135 16.4538 -0.815095 22.1874 3.23686 28.6897C6.85639 34.4874 12.1896 39.5964 17.8271 42.6393L19.2365 43.4081L19.2205 55.9964C19.2044 62.9151 19.2044 68.6647 19.2044 68.7608C19.2205 69.0011 19.765 69.1452 20.0372 68.969C20.2294 68.8569 20.2775 66.5987 20.3415 56.0764L20.4216 43.312L21.7349 42.5432C24.5376 40.9417 27.3244 38.7796 29.8388 36.2811C30.6236 35.5124 31.2962 34.8718 31.3283 34.8718C31.3763 34.8718 32.033 35.2882 32.8017 35.8007C33.5705 36.3132 35.0119 37.194 36.0048 37.7386L37.7986 38.7475V53.8503C37.7986 68.6968 37.7986 68.953 38.1189 69.0331C38.279 69.0811 38.5353 69.0331 38.6794 68.921C38.8876 68.7608 38.9197 67.0632 38.9677 53.7221L38.9997 38.6835L40.5052 37.8186C47.1037 34.0229 53.0935 28.1932 57.706 21.0823C59.4517 18.3917 59.8361 17.655 60.4447 15.7971C62.2865 10.3038 61.6298 5.89949 58.5228 3.01667C56.7611 1.38308 54.7751 0.470189 52.2126 0.117846C48.3849 -0.41067 43.4841 1.19089 39.5443 4.21784L38.4072 5.11472L37.8146 4.6823C32.9298 1.07878 28.1892 -0.490748 23.9931 0.133861ZM27.5005 1.25496C29.2622 1.49519 31.9048 2.40808 33.7146 3.40105C35.0439 4.13777 35.8607 4.6823 37.9908 6.25183L38.4232 6.57214L39.4322 5.77136C42.7474 3.16081 46.0466 1.63933 49.3138 1.22292C51.8923 0.886596 54.3267 1.47917 56.5689 2.95261C59.0353 4.57019 60.3806 7.1487 60.3806 10.3038C60.3806 12.626 59.3236 16.1975 57.9462 18.5518C53.606 25.903 47.1837 32.5014 40.4572 36.5214L38.3912 37.7546L37.1099 37.0979C31.2322 34.103 25.5466 29.01 21.2224 22.876C16.5458 16.2135 15.0884 10.3518 17.0744 6.1237C17.699 4.77839 19.4447 3.04871 20.9021 2.328C23.2884 1.12683 24.8259 0.886596 27.5005 1.25496ZM12.3337 12.0495C12.8142 12.1936 13.7271 12.53 14.3357 12.7862L15.4568 13.2667L15.9052 14.8362C17.4908 20.3296 23.2724 28.2893 29.1341 33.03C29.7587 33.5264 30.2712 34.0069 30.2712 34.071C30.2712 34.2792 27.7568 36.7296 26.2193 38.0108C24.7138 39.2761 22.7599 40.6374 20.854 41.7425L19.6849 42.4151L18.2915 41.6624C13.0384 38.7956 8.45795 34.5354 4.88647 29.1862C2.17983 25.1503 1.13881 22.3315 1.1228 19.1604C1.1228 15.653 2.8685 13.2987 6.48803 11.9374C7.16069 11.6811 7.60912 11.6491 9.37084 11.7132C10.7001 11.7452 11.7732 11.8733 12.3337 12.0495Z" fill="black"/>
</svg>
