<svg width="55" height="69" viewBox="0 0 55 69" fill="none" xmlns="http://www.w3.org/2000/svg">
<path d="M22.9061 0.508787C11.6395 2.27578 2.8207 10.6568 0.356641 21.9883C0.0324219 23.4959 0 24.1281 0 27.5C0 30.4666 0.0648438 31.6176 0.275586 32.6875C1.73457 39.8852 5.81973 47.2936 12.8391 55.5125C16.8107 60.165 26.0996 69 26.9912 69C27.9639 68.9838 37.1717 60.2785 41.9053 54.8965C47.6764 48.3473 51.6805 41.5225 53.1557 35.6865C55.8143 25.2467 53.3502 15.3418 46.3471 8.29004C42.1322 4.04277 36.9285 1.38418 31.1088 0.508787C29.1148 0.216991 24.8352 0.216991 22.9061 0.508787ZM29.0824 1.4166C32.6975 1.74082 35.3398 2.48652 38.5658 4.05898C45.8283 7.60918 50.8699 14.1584 52.6045 22.2477C53.6096 26.9164 52.9287 33.8385 50.9834 38.7018C48.957 43.8406 45.4717 49.1578 40.3328 54.9775C38.4361 57.1498 33.3945 62.1428 30.7035 64.542C29.5039 65.6119 28.2232 66.7629 27.8666 67.0871C27.51 67.4275 27.1371 67.7031 27.0398 67.7031C26.3428 67.7031 16.5027 58.1549 13.3902 54.4588C8.0082 48.0393 4.39316 42.1385 2.52891 36.724C0.308008 30.2721 0.389063 23.6742 2.77207 17.7572C6.40332 8.74394 14.752 2.43789 24.3813 1.4166C26.1645 1.22207 27.0074 1.22207 29.0824 1.4166Z" fill="black"/>
<path d="M14.8873 29.3881C14.7895 29.1355 14.7033 28.8885 14.6295 28.6483L14.6289 28.6462C14.1015 26.9555 14.1387 25.0656 14.6531 23.9653L14.6546 23.9622C14.666 23.9374 14.6775 23.9127 14.6892 23.8881C14.5893 24.1503 14.5192 24.453 14.4706 24.7659C14.4024 25.2046 14.3708 25.7007 14.373 26.2075C14.3771 27.2132 14.5143 28.3135 14.7973 29.136L14.8873 29.3881ZM14.8873 29.3881C14.8561 29.3038 14.8261 29.2198 14.7973 29.1361L14.8873 29.3881ZM18.1304 20.9063L18.1257 20.9078C17.0674 21.2365 16.136 21.8707 15.4399 22.7122C16.3063 21.7147 17.5774 20.9966 18.9083 20.7681C18.5842 20.8 18.3145 20.8471 18.1304 20.9063ZM22.1943 20.9461C22.0639 20.9117 21.9159 20.8809 21.7548 20.854L20.4856 21.6061L19.6148 22.1221C19.614 22.1226 19.6133 22.123 19.6125 22.1235C17.6165 23.3369 16.923 25.7687 17.9813 28.9281L17.9814 28.9282C18.587 30.7373 19.8881 32.8636 21.5678 34.8872C23.2441 36.9068 25.2713 38.7925 27.2985 40.1308L27.2985 40.1308L27.3021 40.1331L28.2423 40.7654L28.9207 41.2215C32.2251 39.1637 35.2286 36.2393 37.5827 32.7314L37.5833 32.7304C38.5312 31.3246 39.1295 30.2571 39.494 29.2633C39.855 28.2791 39.9943 27.3462 39.9943 26.2014H39.9943L39.9944 26.1957C40.0026 25.4707 39.996 25.1191 39.9388 24.8261C39.8843 24.5471 39.7796 24.3012 39.5284 23.7988L39.5272 23.7965C38.9635 22.6542 38.0922 21.7927 36.8275 21.1902C36.3525 20.967 35.6092 20.8006 34.7844 20.7341C33.9647 20.6681 33.1171 20.705 32.4487 20.8535L32.4473 20.8538C31.3401 21.0965 29.5686 21.9077 28.4129 22.7198L28.4107 22.7213L27.4543 23.386L27.1662 23.5862L26.8799 23.3834L26.1018 22.8322L26.1013 22.8319C25.0242 22.067 23.2637 21.2211 22.1974 20.947L22.1943 20.9461ZM28.5508 41.4475C28.628 41.4013 28.705 41.3546 28.7819 41.3074L28.2003 41.6205L27.7789 41.8475L27.7789 41.8475L27.7725 41.8508C27.6661 41.9062 27.5248 41.9757 27.3567 42.0051C27.1741 42.0371 27.0012 42.0159 26.8271 41.9614C26.5253 41.8669 26.1299 41.6377 25.539 41.2879C23.2149 39.951 20.8974 37.9688 18.9829 35.8054C18.4727 35.2289 17.9891 34.6372 17.5402 34.0389C18.717 35.6469 20.1269 37.2164 21.6138 38.5184L21.6138 38.5184L21.6157 38.52C22.8501 39.612 25.3246 41.287 26.5765 41.8975C26.5768 41.8977 26.5772 41.8979 26.5775 41.898L27.2426 42.2187L28.5493 41.4484C28.5498 41.4481 28.5503 41.4478 28.5508 41.4475Z" fill="#F8DCDC" stroke="black"/>
</svg>
