<svg width="262" height="91" viewBox="0 0 262 91" fill="none" xmlns="http://www.w3.org/2000/svg">
<path d="M60.9758 43.0999C59.5117 49.3009 56.1959 54.7697 51.0285 59.5065C46.4639 63.6836 40.6505 65.7721 33.5884 65.7721C27.6028 65.7721 22.0047 63.5328 16.7942 59.0544C14.8564 57.375 13.1554 55.7817 11.6913 54.2745C10.6148 55.6956 9.36599 57.6334 7.94494 60.0879C6.5239 62.4994 5.59806 64.308 5.16744 65.5137C4.90907 66.2458 4.69376 66.6118 4.52151 66.6118C4.34926 66.6118 4.43539 66.0304 4.77988 64.8678C5.68419 61.7673 7.53585 57.7841 10.3349 52.9181C9.17221 51.454 8.09566 50.2267 7.10523 49.2363C6.4593 49.7099 5.85643 50.6358 5.29663 52.0138C3.70333 55.9755 2.88515 59.2697 2.84209 61.8965C2.79903 64.2218 3.122 65.9659 3.81099 67.1285C4.06936 67.6022 4.09089 67.8175 3.87558 67.7745C3.70333 67.7314 3.46649 67.43 3.16506 66.8702C2.30382 65.4922 1.8732 63.7912 1.8732 61.7673C1.8732 57.8487 2.58372 54.2315 4.00477 50.9157C4.77988 49.064 5.44734 48.1166 6.00715 48.0736C6.39471 48.0305 7.04064 48.1597 7.94494 48.4611C8.84924 48.7195 10.055 49.6023 11.5622 51.1095C13.6291 47.2769 16.299 43.0138 19.5717 38.32C20.7344 36.6837 24.8037 31.6239 31.7798 23.1407C28.3779 23.4852 24.976 23.8512 21.5741 24.2388C17.354 24.6694 13.5645 24.9062 10.2057 24.9493C7.96647 24.9923 5.98562 24.7124 4.26314 24.1096C2.23922 23.3775 1.22727 22.3656 1.22727 21.0737C1.22727 19.4373 2.69138 18.1885 5.61959 17.3273C7.90188 16.6814 10.0334 16.423 12.0143 16.5522C13.7368 16.6383 14.5119 16.8536 14.3397 17.1981C14.3397 17.1551 13.7798 17.112 12.6602 17.0689C10.8947 16.9828 9.10762 17.1981 7.29901 17.7149C4.84448 18.4039 3.61721 19.4804 3.61721 20.9445C3.61721 22.8392 6.00715 23.7866 10.787 23.7866C15.8684 23.7866 23.0597 23.3129 32.3611 22.3656L33.3946 20.8153L31.7152 21.1383C32.6625 20.3632 33.7176 19.4589 34.8802 18.4254C35.6553 17.8656 36.086 17.6072 36.1721 17.6503C36.3443 17.7364 36.2582 18.1455 35.9137 18.8775C35.5692 19.5665 34.8587 20.6861 33.7821 22.2364C35.5046 22.0641 37.184 21.978 38.8204 21.978C45.5381 21.978 50.8132 23.1407 54.6457 25.466C59.2533 28.222 61.5572 32.5497 61.5572 38.4492C61.5572 39.9995 61.3634 41.5497 60.9758 43.0999ZM57.3586 42.9061C57.9184 40.9684 58.1983 39.009 58.1983 37.0282C58.1983 32.1191 56.605 28.545 53.4184 26.3057C50.2318 24.0234 45.1721 22.8823 38.2391 22.8823C36.6458 22.8823 34.9879 22.9469 33.2654 23.0761C28.2272 31.1287 24.3731 36.9851 21.7033 40.6454C19.6363 43.2722 16.7296 47.1908 12.9832 52.4013C13.0693 52.4874 14.7703 54.0161 18.086 56.9874C24.0286 62.3271 29.2822 64.997 33.8467 64.997C37.0764 64.997 39.8108 64.5233 42.0501 63.5759C44.3323 62.6285 46.6792 60.8845 49.0907 58.3439C52.7079 54.5544 55.4639 49.4085 57.3586 42.9061ZM63.063 42.7124C61.7711 42.7124 61.0821 42.3033 60.996 41.4851C60.996 41.1837 61.1252 40.7961 61.3836 40.3224C61.685 39.8057 62.0941 39.5473 62.6108 39.5473C62.6969 39.5473 62.74 39.5688 62.74 39.6119C62.74 39.698 62.6539 39.9349 62.4816 40.3224C62.3524 40.6669 62.3309 40.9899 62.417 41.2913C62.5893 41.765 62.9984 42.0664 63.6443 42.1956C64.3333 42.3248 65.173 42.3248 66.1634 42.1956C67.1108 40.2578 68.1012 38.4708 69.1347 36.8344C70.2113 35.155 71.2663 33.6909 72.2998 32.4421C73.3763 31.1502 74.4098 30.1167 75.4002 29.3416C76.4337 28.5234 77.3811 28.0067 78.2423 27.7914C79.2758 27.6622 80.0509 27.7914 80.5677 28.1789C81.1275 28.5234 81.472 28.9541 81.6012 29.4708C81.7304 30.0737 81.7304 30.7411 81.6012 31.4732C81.3428 32.6789 80.6538 33.9923 79.5342 35.4134C78.4576 36.8344 76.9505 38.2339 75.0127 39.6119C74.3237 40.0856 73.3979 40.5593 72.2352 41.0329C71.1156 41.5066 69.8668 41.9157 68.4888 42.2602C68.3596 42.4755 68.2519 42.7124 68.1658 42.9707C66.7017 46.2434 65.4529 49.3224 64.4194 52.2075C63.3859 55.0927 62.8692 57.4396 62.8692 59.2482C62.8692 60.1955 63.2352 60.6692 63.9673 60.6692C64.7424 60.6692 65.5606 60.1094 66.4218 58.9898C67.3261 57.8702 68.1443 56.5783 68.8763 55.1142C69.6515 53.6071 70.2759 52.0999 70.7495 50.5927C71.2232 49.0855 71.4601 47.9229 71.4601 47.1047C71.4601 46.6741 71.3524 46.2865 71.1371 45.942C70.9218 45.5975 70.6634 45.2961 70.362 45.0377C70.1036 44.7793 69.8668 44.5425 69.6515 44.3272C69.4361 44.1119 69.3285 43.9181 69.3285 43.7459C69.3285 43.6167 69.3931 43.4659 69.5223 43.2937C69.6945 43.0784 69.8883 42.9707 70.1036 42.9707C70.4481 42.9707 70.7926 43.1215 71.1371 43.4229C71.4816 43.6813 71.8907 44.3057 72.3644 45.2961C72.838 45.7698 73.3979 46.0066 74.0438 46.0066C74.4313 46.0066 74.862 45.899 75.3356 45.6836C75.8093 45.4683 76.0246 45.3391 75.9816 45.2961C76.0677 45.3822 76.1108 45.4468 76.1108 45.4899C76.1108 45.7052 75.8739 45.9635 75.4002 46.265C74.9266 46.5234 74.4529 46.6525 73.9792 46.6525C73.4194 46.6525 72.9672 46.5449 72.6227 46.3296C72.9242 46.9324 73.0749 47.8152 73.0749 48.9779C73.0749 50.6142 72.7519 52.186 72.106 53.6932C71.4601 55.1573 70.6419 56.4707 69.6515 57.6334C68.7041 58.753 67.6921 59.6573 66.6156 60.3463C65.539 60.9922 64.5486 61.3152 63.6443 61.3152C61.8357 61.186 60.9314 60.0018 60.9314 57.7625C60.9314 54.619 62.6108 49.5808 65.9697 42.6478C65.4529 42.7339 64.9577 42.7985 64.484 42.8415C64.0103 42.8415 63.5367 42.7985 63.063 42.7124ZM74.5605 39.0952C75.5079 38.4923 76.3045 37.8248 76.9505 37.0928C77.6395 36.3607 78.1993 35.6287 78.6299 34.8966C79.1036 34.1646 79.4481 33.454 79.6634 32.765C79.8787 32.076 80.0079 31.4732 80.0509 30.9564C80.094 30.0091 79.9217 29.3201 79.5342 28.8895C78.9744 28.3296 78.0916 28.4158 76.8859 29.1478C75.6801 29.8368 74.2591 31.4732 72.6227 34.0569C71.8476 35.3057 71.1586 36.576 70.5558 37.8679C69.9529 39.1167 69.35 40.387 68.7472 41.6789C69.7376 41.3774 70.728 41.0114 71.7184 40.5808C72.7519 40.1071 73.6993 39.6119 74.5605 39.0952ZM91.1418 43.9396C90.3666 45.8344 89.1824 48.8272 87.5891 52.9181C86.5987 55.5018 85.436 58.0209 84.1011 60.4754C85.2207 59.0544 86.3834 57.8702 87.5891 56.9228C88.5796 56.1477 89.3332 55.674 89.8499 55.5018C90.1083 55.3726 90.259 55.3511 90.302 55.4372C90.3882 55.5664 90.2805 55.6956 89.9791 55.8247C89.2901 56.1692 88.3858 56.8798 87.2662 57.9563C86.1466 59.0329 85.07 60.1955 84.0365 61.4443C83.3475 62.2625 82.7447 62.6285 82.2279 62.5424C81.6251 62.4563 81.5174 61.9826 81.905 61.1214C82.9384 58.796 84.4241 55.1142 86.3619 50.076C84.7686 52.9181 82.9384 55.4157 80.8715 57.5688C78.9767 59.5496 77.5126 60.5185 76.4791 60.4754C75.1873 60.3893 74.5414 59.442 74.5414 57.6334C74.5414 56.2123 74.972 54.5544 75.8332 52.6597C76.8236 50.5066 78.3739 48.4611 80.4839 46.5234C82.8954 44.2841 84.9624 43.2076 86.6848 43.2937C87.7614 43.3368 88.3643 43.8535 88.4934 44.8439C88.7949 44.2841 89.0317 43.875 89.204 43.6167C89.5915 43.0999 90.0221 42.8846 90.4958 42.9707C91.1418 43.0999 91.3571 43.4229 91.1418 43.9396ZM87.7183 45.8774C87.8045 45.619 87.8475 45.3822 87.8475 45.1669C87.8475 44.3487 87.4169 43.9396 86.5557 43.9396C85.1777 43.9396 83.6274 44.9947 81.905 47.1047C80.3978 49.0425 78.9767 51.497 77.6418 54.4683C76.9098 56.1046 76.5437 57.3965 76.5437 58.3439C76.5437 58.9467 76.759 59.2697 77.1897 59.3128C78.0509 59.3558 79.3643 58.3654 81.1298 56.3415C82.637 54.619 84.1226 52.5951 85.5868 50.2697C86.448 48.8487 87.1585 47.3846 87.7183 45.8774Z" fill="#FCF5F5"/>
<path d="M172.752 53.4994L173.785 50.5927L173.85 50.3989H172.816C172.342 50.3989 171.761 50.4205 171.072 50.4635C170.426 50.4635 169.759 50.4635 169.07 50.4635C168.725 51.4109 168.402 52.3583 168.101 53.3056C167.799 54.2099 167.476 55.0927 167.132 55.9539C166.701 56.5999 166.228 57.3104 165.711 58.0855C165.237 58.8606 164.699 59.6788 164.096 60.54C163.838 60.9276 163.579 61.1214 163.321 61.1214C162.976 61.1214 162.804 60.9061 162.804 60.4754C162.804 60.3463 162.869 60.1094 162.998 59.7649L166.421 50.6573C166.163 50.7004 165.862 50.7434 165.517 50.7865C165.173 50.8296 164.893 50.8511 164.677 50.8511C164.333 50.8511 164.161 50.765 164.161 50.5927C164.161 50.2482 165.043 49.9683 166.809 49.753L168.876 44.2626C168.919 44.1765 168.941 44.0688 168.941 43.9396C168.941 43.7243 168.833 43.6167 168.618 43.6167C168.359 43.6167 167.864 43.832 167.132 44.2626C167.003 44.3918 166.895 44.4564 166.809 44.4564C166.723 44.4564 166.68 44.4133 166.68 44.3272C166.68 44.0688 166.852 43.8104 167.197 43.5521C167.541 43.2506 167.929 42.9923 168.359 42.777C168.833 42.5616 169.264 42.3894 169.651 42.2602C170.082 42.088 170.362 42.0018 170.491 42.0018C170.835 42.0018 171.115 42.0664 171.331 42.1956C171.546 42.2817 171.653 42.5186 171.653 42.9061C171.653 43.1645 171.632 43.3583 171.589 43.4875C171.287 44.1334 170.964 45.0162 170.62 46.1358C170.276 47.2123 169.866 48.375 169.393 49.6238C170.34 49.6669 171.201 49.7315 171.976 49.8176C172.795 49.9037 173.462 49.9898 173.979 50.076C174.84 48.0951 175.572 46.5018 176.175 45.2961C176.864 43.9612 177.639 43.0353 178.5 42.5186C179.405 41.9588 179.964 41.7865 180.18 42.0018C180.223 42.0449 180.158 42.2602 179.986 42.6478C178.608 44.8009 177.187 47.8367 175.723 51.7554C175.206 53.1764 174.345 55.3295 173.139 58.2147C174.302 57.052 175.508 56.1262 176.756 55.4372C177.273 55.1788 177.553 55.1142 177.596 55.2434C177.639 55.3295 177.488 55.4802 177.144 55.6956C176.842 55.9109 176.046 56.5353 174.754 57.5688C173.505 58.6022 172.127 59.8941 170.62 61.4443C170.534 61.6166 170.469 61.7673 170.426 61.8965C170.297 62.1549 170.146 62.2625 169.974 62.2195C169.543 62.1333 169.587 61.7027 170.103 60.9276C170.706 59.2051 171.589 56.729 172.752 53.4994ZM195.247 43.9396C194.471 45.8344 193.287 48.8272 191.694 52.9181C190.704 55.5018 189.541 58.0209 188.206 60.4754C189.326 59.0544 190.488 57.8702 191.694 56.9228C192.684 56.1477 193.438 55.674 193.955 55.5018C194.213 55.3726 194.364 55.3511 194.407 55.4372C194.493 55.5664 194.385 55.6956 194.084 55.8247C193.395 56.1692 192.491 56.8798 191.371 57.9563C190.251 59.0329 189.175 60.1955 188.141 61.4443C187.452 62.2625 186.85 62.6285 186.333 62.5424C185.73 62.4563 185.622 61.9826 186.01 61.1214C187.043 58.796 188.529 55.1142 190.467 50.076C188.873 52.9181 187.043 55.4157 184.976 57.5688C183.082 59.5496 181.617 60.5185 180.584 60.4754C179.292 60.3893 178.646 59.442 178.646 57.6334C178.646 56.2123 179.077 54.5544 179.938 52.6597C180.928 50.5066 182.479 48.4611 184.589 46.5234C187 44.2841 189.067 43.2076 190.79 43.2937C191.866 43.3368 192.469 43.8535 192.598 44.8439C192.9 44.2841 193.137 43.875 193.309 43.6167C193.696 43.0999 194.127 42.8846 194.601 42.9707C195.247 43.0999 195.462 43.4229 195.247 43.9396ZM191.823 45.8774C191.909 45.619 191.952 45.3822 191.952 45.1669C191.952 44.3487 191.522 43.9396 190.66 43.9396C189.283 43.9396 187.732 44.9947 186.01 47.1047C184.503 49.0425 183.082 51.497 181.747 54.4683C181.015 56.1046 180.649 57.3965 180.649 58.3439C180.649 58.9467 180.864 59.2697 181.295 59.3128C182.156 59.3558 183.469 58.3654 185.235 56.3415C186.742 54.619 188.227 52.5951 189.692 50.2697C190.553 48.8487 191.263 47.3846 191.823 45.8774ZM204.599 53.4994C204.642 53.4563 204.707 53.3056 204.793 53.0472C204.922 52.7458 205.03 52.4444 205.116 52.1429C205.245 51.7984 205.353 51.4755 205.439 51.174C205.568 50.8726 205.632 50.6788 205.632 50.5927C205.848 50.076 206.063 49.5808 206.278 49.1071C204.642 51.2602 203.307 52.7889 202.274 53.6932C201.068 54.7697 200.077 55.308 199.302 55.308C198.097 55.308 197.537 54.7482 197.623 53.6286C197.666 53.1549 197.752 52.6382 197.881 52.0784C198.01 51.5185 198.226 50.8726 198.527 50.1406C198.872 49.2793 199.281 48.4181 199.754 47.5568C200.271 46.6525 200.809 45.7052 201.369 44.7147C200.939 44.8009 200.637 44.8439 200.465 44.8439C200.293 44.8009 200.121 44.7793 199.948 44.7793C199.776 44.7363 199.604 44.6717 199.432 44.5856C200.207 44.3703 200.896 44.1765 201.498 44.0042C202.015 43.832 202.51 43.6813 202.984 43.5521C203.458 43.3798 203.738 43.2506 203.824 43.1645C203.91 43.1215 204.018 43.0999 204.147 43.0999C204.233 43.0999 204.276 43.143 204.276 43.2291L204.211 43.4229C203.522 44.6717 202.898 45.899 202.338 47.1047C201.778 48.2674 201.262 49.3654 200.788 50.3989C200.573 50.9157 200.4 51.454 200.271 52.0138C200.142 52.5736 200.056 52.9827 200.013 53.241C199.927 53.8439 200.099 54.1453 200.53 54.1453C201.046 54.1453 201.951 53.4563 203.243 52.0784C204.362 50.8726 205.697 49.1932 207.247 47.0401C207.893 45.7482 208.453 44.7147 208.927 43.9396C209.831 42.6047 210.757 41.9372 211.704 41.9372C211.876 41.9372 211.984 41.9588 212.027 42.0018V42.0664C212.027 42.1956 211.963 42.3894 211.833 42.6478C211.231 43.5521 210.714 44.4564 210.283 45.3607C209.896 46.2219 209.465 47.2339 208.991 48.3965C208.518 49.5592 207.958 50.9372 207.312 52.5305C206.709 54.0807 205.934 55.9755 204.987 58.2147C205.288 57.9133 205.632 57.5903 206.02 57.2458C206.451 56.8582 206.86 56.5137 207.247 56.2123C207.678 55.9109 208.065 55.674 208.41 55.5018C208.798 55.2865 209.099 55.1788 209.314 55.1788C209.4 55.1788 209.443 55.2219 209.443 55.308C209.443 55.3941 208.841 55.8678 207.635 56.729C206.472 57.5472 204.75 59.119 202.467 61.4443C202.338 61.9611 202.144 62.2195 201.886 62.2195C201.628 62.2195 201.498 62.1118 201.498 61.8965C201.498 61.7673 201.585 61.4659 201.757 60.9922C201.972 60.4754 202.209 59.8295 202.467 59.0544C202.769 58.2793 203.092 57.418 203.436 56.4707C203.824 55.4802 204.211 54.4898 204.599 53.4994ZM227.732 43.9396C226.957 45.8344 225.773 48.8272 224.18 52.9181C223.189 55.5018 222.027 58.0209 220.692 60.4754C221.811 59.0544 222.974 57.8702 224.18 56.9228C225.17 56.1477 225.924 55.674 226.44 55.5018C226.699 55.3726 226.85 55.3511 226.893 55.4372C226.979 55.5664 226.871 55.6956 226.57 55.8247C225.881 56.1692 224.976 56.8798 223.857 57.9563C222.737 59.0329 221.661 60.1955 220.627 61.4443C219.938 62.2625 219.335 62.6285 218.819 62.5424C218.216 62.4563 218.108 61.9826 218.496 61.1214C219.529 58.796 221.015 55.1142 222.952 50.076C221.359 52.9181 219.529 55.4157 217.462 57.5688C215.567 59.5496 214.103 60.5185 213.07 60.4754C211.778 60.3893 211.132 59.442 211.132 57.6334C211.132 56.2123 211.563 54.5544 212.424 52.6597C213.414 50.5066 214.964 48.4611 217.074 46.5234C219.486 44.2841 221.553 43.2076 223.275 43.2937C224.352 43.3368 224.955 43.8535 225.084 44.8439C225.385 44.2841 225.622 43.875 225.795 43.6167C226.182 43.0999 226.613 42.8846 227.086 42.9707C227.732 43.0999 227.948 43.4229 227.732 43.9396ZM224.309 45.8774C224.395 45.619 224.438 45.3822 224.438 45.1669C224.438 44.3487 224.007 43.9396 223.146 43.9396C221.768 43.9396 220.218 44.9947 218.496 47.1047C216.988 49.0425 215.567 51.497 214.232 54.4683C213.5 56.1046 213.134 57.3965 213.134 58.3439C213.134 58.9467 213.35 59.2697 213.78 59.3128C214.641 59.3558 215.955 58.3654 217.72 56.3415C219.228 54.619 220.713 52.5951 222.177 50.2697C223.039 48.8487 223.749 47.3846 224.309 45.8774ZM227.396 60.1525C227.396 59.2051 227.762 58.107 228.494 56.8582C229.527 55.0927 231.487 52.6382 234.372 49.4946C236.051 47.9444 238.247 45.576 240.96 42.3894C241.262 42.0018 241.52 41.8296 241.735 41.8727C242.381 41.9588 242.704 42.3033 242.704 42.9061C242.704 43.6813 242.446 44.4133 241.929 45.1023C241.585 45.7482 241.197 46.7387 240.767 48.0736C239.561 51.7339 238.915 54.7482 238.829 57.1166C238.743 58.8391 239.302 59.7003 240.508 59.7003C240.896 59.7003 241.283 59.5927 241.671 59.3774C242.489 58.9037 242.941 58.796 243.027 59.0544C243.113 59.2697 242.489 59.6573 241.154 60.2171C239.991 60.6908 239.13 60.9276 238.57 60.9276C236.891 60.9276 236.116 59.7219 236.245 57.3104C236.374 55.0712 237.3 51.7554 239.022 47.3631C239.496 46.1143 239.97 45.0808 240.444 44.2626C239.367 45.4253 237.752 47.2123 235.599 49.6238C232.025 54.1023 229.721 57.6979 228.688 60.4109C228.688 60.4539 228.666 60.7338 228.623 61.2506C228.537 61.7673 228.451 62.0257 228.365 62.0257C228.192 62.0257 227.999 61.8319 227.783 61.4443C227.525 61.0998 227.396 60.6692 227.396 60.1525ZM260.975 43.9396C260.2 45.8344 259.016 48.8272 257.422 52.9181C256.432 55.5018 255.269 58.0209 253.934 60.4754C255.054 59.0544 256.217 57.8702 257.422 56.9228C258.413 56.1477 259.166 55.674 259.683 55.5018C259.942 55.3726 260.092 55.3511 260.135 55.4372C260.221 55.5664 260.114 55.6956 259.812 55.8247C259.123 56.1692 258.219 56.8798 257.099 57.9563C255.98 59.0329 254.903 60.1955 253.87 61.4443C253.181 62.2625 252.578 62.6285 252.061 62.5424C251.458 62.4563 251.351 61.9826 251.738 61.1214C252.772 58.796 254.257 55.1142 256.195 50.076C254.602 52.9181 252.772 55.4157 250.705 57.5688C248.81 59.5496 247.346 60.5185 246.312 60.4754C245.021 60.3893 244.375 59.442 244.375 57.6334C244.375 56.2123 244.805 54.5544 245.666 52.6597C246.657 50.5066 248.207 48.4611 250.317 46.5234C252.729 44.2841 254.796 43.2076 256.518 43.2937C257.595 43.3368 258.198 43.8535 258.327 44.8439C258.628 44.2841 258.865 43.875 259.037 43.6167C259.425 43.0999 259.855 42.8846 260.329 42.9707C260.975 43.0999 261.19 43.4229 260.975 43.9396ZM257.552 45.8774C257.638 45.619 257.681 45.3822 257.681 45.1669C257.681 44.3487 257.25 43.9396 256.389 43.9396C255.011 43.9396 253.461 44.9947 251.738 47.1047C250.231 49.0425 248.81 51.497 247.475 54.4683C246.743 56.1046 246.377 57.3965 246.377 58.3439C246.377 58.9467 246.592 59.2697 247.023 59.3128C247.884 59.3558 249.198 58.3654 250.963 56.3415C252.47 54.619 253.956 52.5951 255.42 50.2697C256.281 48.8487 256.992 47.3846 257.552 45.8774Z" fill="#FCF5F5"/>
<path d="M113.394 0.344387C110.868 1.02047 109 2.14133 107.203 4.0984C105.068 6.39351 103.982 9.22237 104 12.5316C104.018 16.9439 105.904 21.1249 110.387 26.5869C112.006 28.5796 116.134 32.7072 118.554 34.771C121.258 37.0839 125.261 40.0195 125.724 40.0195C126.72 40.0195 132.022 35.8563 136.203 31.7643C143.835 24.3274 147.501 17.9758 147.536 12.1758C147.536 10.1831 147.305 8.95549 146.558 7.31867C145.01 3.86711 141.914 1.28734 138.142 0.344387C136.416 -0.0826111 133.659 -0.118195 131.986 0.27322C130.403 0.646843 128.197 1.74992 126.916 2.81741C126.329 3.31557 125.813 3.72478 125.759 3.72478C125.706 3.72478 125.172 3.31557 124.603 2.81741C123.357 1.76771 121.187 0.682426 119.514 0.27322C117.913 -0.118195 114.995 -0.0826111 113.394 0.344387ZM119.372 2.40821C121.098 2.92416 122.681 3.8849 124.051 5.27264C124.905 6.12664 125.492 6.57143 125.759 6.57143C126.026 6.57143 126.595 6.12664 127.432 5.27264C129.567 3.11987 132.04 2.05238 134.922 2.07017C136.843 2.07017 138.409 2.44379 139.993 3.31557C143.302 5.11252 145.259 8.11929 145.455 11.731C145.668 15.5739 143.177 20.8402 138.712 26.0532C135.634 29.6293 129.887 34.8956 126.489 37.2618L125.777 37.7422L124.3 36.6213C118.34 32.1201 112.327 26.1599 109.533 21.9433C105.05 15.2003 104.89 9.43587 109.106 5.21927C110.85 3.4757 112.594 2.55054 114.906 2.10575C115.974 1.91004 118.198 2.07017 119.372 2.40821Z" fill="#FCF5F5"/>
<path d="M131.862 41.0691C129.958 41.7096 129.211 42.6704 127.983 45.9262C127.61 46.9403 127.272 47.7943 127.236 47.8299C127.218 47.8655 126.453 47.1894 125.546 46.3176C123.589 44.4317 122.913 44.0581 121.187 43.9691C119.39 43.8624 118.287 44.2716 117.13 45.428C116.045 46.5133 115.618 47.5808 115.618 49.2532C115.618 51.1925 116.063 51.9042 119.39 55.2668C121.489 57.384 122.165 58.1668 121.899 58.1668C120.849 58.1668 120.066 58.8073 114.319 64.5362C111.099 67.7386 108.252 70.6742 107.968 71.0834C107.043 72.4 106.669 73.8589 106.776 75.7448C106.847 77.1859 106.936 77.5596 107.487 78.6804C108.057 79.8369 108.608 80.4418 113.163 84.9609C119.248 90.9922 119.248 90.9922 122.557 90.9922C124.532 90.9922 124.656 90.9744 125.848 90.3873C126.987 89.8357 127.77 89.1241 134.815 82.1142C139.05 77.8976 142.875 73.9835 143.302 73.4141C145.099 71.0123 145.294 67.5963 143.782 64.9276C143.533 64.4828 141.54 62.33 139.37 60.1239L135.42 56.1208L137.092 51.7618C138.996 46.8514 139.174 46.033 138.64 44.3605C138.391 43.5421 138.107 43.0973 137.342 42.3323C135.794 40.8022 133.908 40.3574 131.862 41.0691ZM134.886 43.1151C136.025 43.5955 136.79 44.7698 136.79 46.033C136.79 46.5311 134.139 54.0214 133.819 54.4306C133.783 54.4661 132.645 53.3987 131.292 52.0465L128.837 49.5913L129.816 47.0827C130.349 45.6949 130.937 44.3428 131.132 44.0581C131.88 43.0084 133.623 42.5636 134.886 43.1151ZM121.756 46.0863C122.361 46.2465 123.873 47.6698 132.04 55.8183C142.857 66.6178 142.697 66.4221 142.697 68.8417C142.697 71.2258 142.679 71.2436 133.73 80.1749C126.773 87.1136 125.724 88.0922 124.781 88.5192C123.482 89.1241 122.023 89.1774 120.6 88.6971C119.799 88.4124 119.283 88.021 117.682 86.4731C115.102 83.9645 114.675 83.0038 115.422 81.367C116.045 79.9792 117.735 79.2142 119.283 79.5878C119.55 79.659 120.618 80.5308 121.685 81.5805C123.233 83.0927 123.678 83.4308 124.122 83.4308C124.745 83.4308 125.101 83.0749 125.101 82.4345C125.083 82.0786 124.265 81.1357 121.169 78.0399C119.016 75.8694 117.13 73.8411 116.97 73.5209C116.81 73.2006 116.686 72.5601 116.686 72.0976C116.703 70.0337 118.625 68.5748 120.635 69.073C121.294 69.2331 121.952 69.8025 125.492 73.3252C129.015 76.8123 129.673 77.3817 130.136 77.3817C130.812 77.3817 131.097 77.097 131.097 76.4031C131.097 75.9405 130.438 75.2111 125.741 70.5319C122.806 67.5963 120.315 65.0343 120.208 64.8386C119.55 63.6822 119.728 62.2944 120.653 61.2447C121.56 60.2128 122.877 59.857 124.105 60.3196C124.372 60.4085 127.04 62.9349 130.029 65.8883C133.018 68.8595 135.634 71.3503 135.865 71.4215C136.452 71.5994 137.146 71.1012 137.146 70.4785C137.146 70.0871 135.491 68.3436 127.556 60.3907C118.5 51.2993 117.967 50.7299 117.771 49.9293C117.397 48.3814 118.144 46.9047 119.621 46.2287C120.457 45.8372 120.795 45.8195 121.756 46.0863ZM117.931 64.7852C118.038 65.2122 118.322 65.8527 118.571 66.2086L118.998 66.8669L118.322 67.0626C116.152 67.6319 114.551 69.8025 114.551 72.1509C114.551 73.5921 115.12 74.8553 116.348 76.2074C117.255 77.2037 117.379 77.3994 117.095 77.4706C116.152 77.7553 114.817 78.5915 114.266 79.2142C113.928 79.6234 113.519 80.3706 113.359 80.8866L113.056 81.8473L111.419 80.2105C110.53 79.3209 109.622 78.2357 109.409 77.8087C108.608 76.243 108.626 74.4283 109.427 72.7736C109.694 72.2221 111.099 70.6565 113.732 67.9877C115.867 65.8172 117.664 64.038 117.682 64.038C117.717 64.038 117.824 64.376 117.931 64.7852Z" fill="#FCF5F5"/>
</svg>
