<svg width="79" height="78" viewBox="0 0 79 78" fill="none" xmlns="http://www.w3.org/2000/svg">
<path d="M37.4764 20.957C34.1107 21.3941 31.029 22.6836 28.3335 24.7672C27.4811 25.4301 26.0313 26.858 25.3247 27.7322C23.3139 30.2238 21.9807 33.167 21.4125 36.3725C21.2085 37.509 21.1284 40.241 21.2595 41.4868C21.5728 44.3936 22.5854 47.2421 24.159 49.6608C24.873 50.7536 25.4995 51.5331 26.4757 52.5312C29.5282 55.6638 33.3821 57.558 37.7678 58.0679C38.7441 58.1845 41.119 58.1626 42.1754 58.0388C47.6248 57.3613 52.4913 54.3088 55.5292 49.6608C57.0591 47.3222 58.0353 44.634 58.385 41.8292C58.5307 40.649 58.5307 38.3541 58.385 37.1666C57.7148 31.761 54.6696 26.8799 50.0799 23.8638C47.683 22.2902 45.0166 21.314 42.1754 20.957C41.068 20.8258 38.5255 20.8258 37.4764 20.957ZM41.3595 26.7487C43.2245 27.1859 44.8782 28.5336 45.716 30.2966C46.3207 31.5861 46.5028 33.2544 46.1823 34.6168C45.41 37.8369 42.1754 40.037 38.9262 39.5416C36.777 39.2211 34.9776 37.9024 34.0159 35.9646C33.8192 35.5639 33.608 35.0248 33.5424 34.7698C32.9596 32.4676 33.5934 30.1509 35.2471 28.4899C36.879 26.858 39.1083 26.2242 41.3595 26.7487ZM34.1616 39.731C34.2928 39.7747 34.7445 40.0151 35.1597 40.2701C38.1685 42.0987 41.9423 42.0404 44.7471 40.139C45.5776 39.578 46.277 39.4979 46.8598 39.9059C47.5009 40.3575 47.7705 41.3629 47.3916 41.9166C46.9618 42.5504 45.818 43.3955 44.7398 43.8763C43.9894 44.2041 42.7728 44.532 41.7966 44.6704C41.4396 44.7214 41.1555 44.7943 41.1555 44.8307C41.1555 44.8744 42.2847 46.04 43.6616 47.4315C45.0385 48.8157 46.2187 50.0542 46.2843 50.1853C46.4445 50.5059 46.4373 51.096 46.2624 51.4311C45.8544 52.2179 44.8782 52.6186 44.1934 52.2762C44.0623 52.2106 43.0715 51.2781 41.9933 50.1999C40.7256 48.9468 39.968 48.2402 39.8733 48.2402C39.7786 48.2402 39.0646 48.9031 37.8771 50.0979C36.8572 51.1251 35.8955 52.0431 35.7498 52.145C35.371 52.4146 34.9776 52.4875 34.5769 52.3636C33.6444 52.0868 33.0907 51.1178 33.3967 50.2946C33.506 50.0105 33.9285 49.5442 36.0631 47.4024C37.4619 45.9963 38.6056 44.8307 38.6056 44.8015C38.6056 44.7797 38.4016 44.7433 38.154 44.7141C36.7479 44.5611 35.0213 44.0074 34.0014 43.3736C32.0854 42.2007 31.6847 41.3119 32.5443 40.1608C32.8722 39.7164 33.5861 39.527 34.1616 39.731Z" fill="#404040"/>
<path d="M39.3342 29.896C37.6367 30.0927 36.3764 31.7902 36.6314 33.5459C37.0102 36.1759 40.2667 37.2687 42.1463 35.3891C43.0934 34.4347 43.3556 32.8684 42.7582 31.6663C42.1099 30.3477 40.8787 29.7139 39.3342 29.896Z" fill="#404040"/>
<circle cx="39.3027" cy="38.9515" r="38.4515" stroke="#404040"/>
</svg>
