<svg width="49" height="49" viewBox="0 0 49 49" fill="none" xmlns="http://www.w3.org/2000/svg">
<circle cx="24.2167" cy="24.2167" r="23.7167" stroke="#404040"/>
<path d="M12.7485 23.34L12.7982 23.3452C12.7381 23.9233 12.7381 25.3433 12.7982 25.9214C13.0762 28.5341 14.2203 30.9662 16.0643 32.875C17.9082 34.7791 20.2197 35.9697 22.8981 36.3868C23.2733 36.4443 23.9411 36.4734 24.6118 36.4734C25.2825 36.4734 25.9504 36.4443 26.3256 36.3868C29.004 35.9697 31.3155 34.7791 33.1594 32.875C35.0033 30.9662 36.1475 28.5341 36.4254 25.9215C36.4856 25.3434 36.4856 23.9233 36.4254 23.3452C36.1475 20.7326 35.0033 18.3005 33.1594 16.3916L33.1953 16.3569L33.1594 16.3916C31.3294 14.4968 29.0086 13.3016 26.372 12.8892L26.3719 12.8892C26.1407 12.8525 25.5334 12.8188 24.9313 12.8002C24.3286 12.7815 23.7409 12.7783 23.5476 12.801C22.3827 12.9403 21.6419 13.1025 20.7572 13.4035C16.4024 14.8907 13.28 18.7916 12.7982 23.3453L12.7485 23.34ZM12.7485 23.34C13.2323 18.7668 16.368 14.8496 20.7411 13.3562L16.0284 32.9098C14.1767 30.993 13.0276 28.5506 12.7485 25.9267C12.688 25.3451 12.688 23.9215 12.7485 23.34ZM29.7224 27.6918L29.7223 27.6918C29.371 27.2404 29.0487 26.8297 28.8125 26.5318C28.6944 26.3829 28.5977 26.262 28.5296 26.1783C28.4956 26.1365 28.4685 26.1038 28.4494 26.0813C28.4399 26.0702 28.432 26.0612 28.4261 26.0547C28.4232 26.0516 28.4201 26.0484 28.4172 26.0457C28.4158 26.0444 28.4135 26.0423 28.4106 26.0402C28.4092 26.0392 28.4066 26.0374 28.4031 26.0357C28.4012 26.0347 28.3944 26.0313 28.3847 26.0304C28.3833 26.0303 28.3818 26.0302 28.3802 26.0302V26.0802L29.7224 27.6918ZM29.7224 27.6918C30.0737 28.1455 30.3936 28.562 30.6252 28.8675M29.7224 27.6918L30.6252 28.8675M30.6252 28.8675C30.741 29.0203 30.8348 29.1454 30.8995 29.2336M30.6252 28.8675L30.8995 29.2336M30.8995 29.2336C30.9317 29.2777 30.957 29.3128 30.9741 29.3378M30.8995 29.2336L30.9741 29.3378M30.9741 29.3378C30.9826 29.3501 30.9896 29.3606 30.9944 29.3686M30.9741 29.3378L30.9944 29.3686M30.9944 29.3686C30.9968 29.3724 30.9993 29.3767 31.0013 29.3808M30.9944 29.3686L31.0013 29.3808M31.0013 29.3808C31.0022 29.3828 31.0037 29.386 31.0049 29.3898M31.0013 29.3808L31.0049 29.3898M31.0049 29.3898C31.0056 29.3918 31.0065 29.3949 31.007 29.3988M31.0049 29.3898L31.007 29.3988M31.007 29.3988C31.0074 29.4014 31.008 29.4068 31.0071 29.4136M31.007 29.3988L31.0071 29.4136M31.0071 29.4136C31.0059 29.4224 31.0027 29.4291 31.0011 29.4324C30.9989 29.4367 30.9965 29.4404 30.9944 29.4433C30.9903 29.4492 30.9852 29.4553 30.9799 29.461C30.9693 29.4728 30.9546 29.4872 30.9371 29.5037C30.902 29.5367 30.8525 29.5802 30.7936 29.6303C30.6758 29.7307 30.5188 29.859 30.3601 29.9854C30.2013 30.1118 30.0405 30.2366 29.9151 30.3299C29.8525 30.3765 29.7983 30.4156 29.7574 30.4432C29.737 30.4569 29.7192 30.4683 29.705 30.4764C29.698 30.4804 29.691 30.4842 29.6844 30.487C29.6804 30.4888 29.6695 30.4936 29.6569 30.494M31.0071 29.4136L29.6569 30.494M31.0071 29.4136C31.0072 29.4126 31.0073 29.4117 31.0074 29.4107L30.9576 29.4066L31.0061 29.4187L31.0071 29.4136ZM29.6569 30.494C29.6575 30.494 29.6581 30.494 29.6588 30.4939L29.6549 30.4441V30.4941C29.6556 30.4941 29.6562 30.494 29.6569 30.494ZM22.8654 21.8801L22.8653 21.8803L22.8615 21.8786C22.8558 21.8762 22.8518 21.8732 22.8506 21.8723L22.8466 21.8689L22.8419 21.8644C22.8393 21.8618 22.8364 21.8585 22.8333 21.855C22.8271 21.8479 22.8186 21.8379 22.8082 21.8254C22.7874 21.8004 22.758 21.7643 22.7214 21.7188C22.648 21.6278 22.5451 21.4987 22.4226 21.3441C22.1777 21.0349 21.8541 20.6237 21.5316 20.2119C21.2091 19.8002 20.8876 19.3878 20.6467 19.0762C20.5262 18.9205 20.4259 18.7899 20.3556 18.6971C20.3204 18.6507 20.2927 18.6136 20.2736 18.5875C20.2641 18.5745 20.2565 18.5639 20.2512 18.556C20.2486 18.5522 20.2461 18.5484 20.2441 18.5451C20.2432 18.5435 20.2418 18.5412 20.2406 18.5386C20.24 18.5373 20.239 18.5351 20.2381 18.5324C20.2375 18.5307 20.2352 18.5242 20.2352 18.5156C20.2352 18.5007 20.2418 18.4898 20.2432 18.4875L20.2433 18.4873C20.2458 18.4832 20.2485 18.4798 20.2505 18.4774C20.2546 18.4724 20.2597 18.4671 20.265 18.4619C20.2757 18.4514 20.2908 18.4378 20.3091 18.422C20.3458 18.3901 20.3979 18.3471 20.4601 18.2969C20.5845 18.1965 20.7506 18.0664 20.9177 17.938C21.0848 17.8096 21.2532 17.6827 21.3823 17.5887C21.4468 17.5417 21.502 17.5026 21.5424 17.4756C21.5624 17.4622 21.5796 17.4512 21.5929 17.4436C21.5994 17.4399 21.6061 17.4363 21.6124 17.4337C21.6155 17.4324 21.6199 17.4307 21.6251 17.4295L21.6252 17.4295C21.6283 17.4287 21.6416 17.4257 21.6566 17.4313L21.6576 17.4317C21.6649 17.4346 21.6701 17.4388 21.6714 17.4397C21.6736 17.4415 21.6755 17.4432 21.677 17.4446C21.6783 17.4458 21.6797 17.4471 21.6811 17.4485C21.6828 17.4503 21.6846 17.4522 21.6864 17.4541C21.6929 17.461 21.7014 17.4706 21.7115 17.4822C21.7318 17.5057 21.76 17.5395 21.7952 17.5822C21.8655 17.6677 21.9644 17.7902 22.0846 17.9406C22.3249 18.2415 22.6507 18.6545 23.0044 19.1082C23.5345 19.7872 23.8539 20.2021 24.0337 20.4532C24.1233 20.5783 24.1799 20.6649 24.2105 20.7241C24.2256 20.7533 24.2364 20.7795 24.2403 20.8026C24.2441 20.8253 24.2426 20.8564 24.2176 20.8786C24.1296 20.9637 23.8092 21.2149 23.5104 21.4416C23.3596 21.556 23.213 21.6651 23.1022 21.7452C23.0469 21.7851 23.0002 21.8181 22.9662 21.8409C22.9493 21.8523 22.9348 21.8616 22.9238 21.868C22.9214 21.8694 22.9189 21.8709 22.9164 21.8722C22.9134 21.8738 22.9104 21.8754 22.9075 21.8767C22.9049 21.8778 22.901 21.8795 22.8965 21.8807L22.8963 21.8808C22.8939 21.8814 22.8807 21.8852 22.8654 21.8801ZM26.173 27.5855L26.173 27.5855L26.1742 27.5858C26.1963 27.5919 26.2187 27.6055 26.2409 27.6224C26.2639 27.6399 26.2905 27.6639 26.3215 27.6946C26.3834 27.7562 26.466 27.8484 26.5761 27.9793C26.7966 28.2412 27.131 28.6618 27.638 29.3107L27.638 29.3107C28.0986 29.9016 28.4212 30.3232 28.6236 30.6007C28.7246 30.7393 28.7963 30.8429 28.8403 30.9141C28.8621 30.9494 28.8784 30.9786 28.8878 31.0011C28.8923 31.0119 28.8967 31.0245 28.8981 31.0371C28.8992 31.0469 28.9005 31.0769 28.8732 31.0951L28.8732 31.0951L28.872 31.0958C28.8234 31.1264 28.7393 31.1529 28.6383 31.176C28.5353 31.1995 28.408 31.221 28.268 31.2392C27.988 31.2755 27.6544 31.2989 27.3567 31.2989L27.3565 31.2989C26.3299 31.2942 25.4853 31.097 24.5067 30.6335L24.5066 30.6334C23.2748 30.048 22.0678 29.026 21.0821 27.8127C20.0963 26.5994 19.3294 25.1915 18.9806 23.8316L18.9806 23.8316C18.7841 23.064 18.7277 22.552 18.7605 21.7562C18.7979 20.8524 18.9341 20.2506 19.2859 19.4721C19.3289 19.3756 19.3637 19.3 19.3933 19.2428C19.4223 19.1867 19.4485 19.1439 19.4753 19.1163C19.4892 19.1021 19.5052 19.0898 19.5243 19.0826C19.5444 19.0752 19.5648 19.0747 19.5843 19.0798C19.6191 19.089 19.6489 19.1158 19.6739 19.1408C19.688 19.155 19.7361 19.2137 19.8073 19.3024C19.88 19.3929 19.9796 19.5182 20.0988 19.6692C20.3373 19.9711 20.6549 20.3759 20.9945 20.8109C21.5432 21.5107 21.8534 21.9119 22.0265 22.1568C22.1971 22.3984 22.2426 22.4983 22.2426 22.591C22.2426 22.6793 22.2744 22.9357 22.3117 23.1642C22.6024 24.8386 23.5614 26.2307 25.0092 27.0791C25.3467 27.2732 25.9142 27.5219 26.173 27.5855Z" fill="#404040" stroke="#404040" stroke-width="0.1"/>
</svg>
