<svg width="75" height="69" viewBox="0 0 75 69" fill="none" xmlns="http://www.w3.org/2000/svg">
<path d="M25.695 0.746784L25.695 0.746761C26.139 0.599556 26.9903 0.515419 27.9388 0.522612C28.4852 0.526756 29.0347 0.560921 29.5202 0.621916L28.1341 0.663975L27.4965 0.683321C27.4964 0.683325 27.4962 0.683329 27.4961 0.683332C25.2317 0.746635 22.962 2.16545 21.9378 4.1307C21.7499 4.48889 21.6281 4.96526 21.5515 5.47321C21.4735 5.99067 21.4373 6.57778 21.4397 7.17904C21.4445 8.37391 21.6027 9.67626 21.9257 10.6446L25.695 0.746784ZM25.695 0.746784L25.6903 0.748314C23.895 1.32368 22.4062 2.67524 21.6168 4.44882L21.6154 4.45189C21.0045 5.79976 20.9658 8.0901 21.5822 10.1286L21.5828 10.1306C22.6582 13.7409 25.9767 18.609 29.7056 21.9773L29.7075 21.979C31.1433 23.2892 34.0173 25.2962 35.4749 26.0295C35.4752 26.0297 35.4756 26.0298 35.4759 26.03L36.2792 26.4295L37.8254 25.4893C37.8259 25.4889 37.8265 25.4886 37.827 25.4883C41.8359 23.0104 45.4849 19.4017 48.3221 15.04L48.3227 15.0391C49.4229 13.3559 50.1215 12.0715 50.5483 10.8714C50.9717 9.68038 51.1347 8.55162 51.1347 7.17218H51.1346L51.1347 7.16667C51.1442 6.30247 51.1371 5.86996 51.0683 5.50631C51.002 5.15645 50.8745 4.85077 50.5835 4.25037L50.5824 4.24806C49.9184 2.86015 48.893 1.81681 47.4133 1.08971C46.8521 0.817551 45.9816 0.61762 45.022 0.537868C44.0675 0.45853 43.0785 0.502583 42.2959 0.682003L42.2944 0.682331C41.0011 0.974764 38.9392 1.94915 37.5926 2.92532L37.5905 2.92686L36.482 3.72152L36.1878 3.93237L35.8957 3.71886L34.9938 3.05987L34.9933 3.05951C33.7382 2.14006 31.6898 1.12449 30.4447 0.79423L30.4416 0.793377C30.2821 0.749947 30.1005 0.711353 29.9027 0.677874L28.41 1.59035L27.4001 2.20772C27.3993 2.20819 27.3986 2.20865 27.3978 2.20912C25.0372 3.68921 24.231 6.65721 25.4683 10.4678L25.4684 10.4678C26.1758 12.6479 27.692 15.2011 29.6426 17.6255C31.5903 20.0461 33.9459 22.3068 36.303 23.912L36.303 23.912L36.3065 23.9144L37.3963 24.6703L38.0563 25.1282L37.3541 25.5183L36.8656 25.7896L36.8656 25.7897L36.8591 25.7931C36.7369 25.8587 36.5812 25.9374 36.3972 25.9706C36.1977 26.0065 36.0079 25.9831 35.8139 25.9204C35.4738 25.8106 35.024 25.5423 34.3358 25.1219M25.695 0.746784L34.3358 25.1219M34.3358 25.1219C31.6505 23.5286 28.9713 21.1648 26.7575 18.5843C24.5457 16.0061 22.7703 13.1785 21.9257 10.6447L34.3358 25.1219Z" fill="#F8DCDC" stroke="black"/>
<path d="M61.0632 12.1518C60.9327 12.2823 60.8892 14.5159 60.8892 22.1305C60.8892 32.6748 60.8747 32.5153 61.6289 32.3992L61.977 32.3557V22.203V12.0502L61.6144 12.0067C61.4113 11.9777 61.1648 12.0502 61.0632 12.1518Z" fill="black"/>
<path d="M12.2281 16.2129C12.1846 16.3144 12.1701 19.9839 12.1846 24.3786L12.2281 32.3557L12.5762 32.3992C13.3159 32.5153 13.3159 32.5298 13.3159 24.161C13.3159 18.3014 13.2724 16.3434 13.1419 16.2129C12.9098 15.9808 12.3152 15.9953 12.2281 16.2129Z" fill="black"/>
<path d="M65.1097 17.3293C65.0082 17.5178 64.9502 19.9835 64.9502 24.7698C64.9502 32.4859 64.9502 32.5149 65.6899 32.3988L66.038 32.3553V24.7408V17.1262L65.6464 17.0827C65.3853 17.0537 65.2113 17.1262 65.1097 17.3293Z" fill="black"/>
<path d="M16.2897 21.3032C16.2462 21.3902 16.2317 23.9284 16.2462 26.9162L16.2897 32.3552L16.6233 32.3987C17.3775 32.5147 17.3775 32.5147 17.3775 26.7857C17.3775 22.8406 17.334 21.4192 17.2034 21.2887C16.9714 21.0566 16.3767 21.0711 16.2897 21.3032Z" fill="black"/>
<path d="M57.0017 23.3193C56.8711 23.4499 56.8276 24.5667 56.8276 27.801C56.8276 32.4278 56.8421 32.5148 57.5818 32.3988L57.9154 32.3553V27.7865V23.2178L57.5528 23.1743C57.3498 23.1453 57.1032 23.2178 57.0017 23.3193Z" fill="black"/>
<path d="M8.15286 25.3645C8.12385 25.466 8.10935 27.076 8.12385 28.947L8.16737 32.3554L8.51546 32.3989C9.19714 32.5004 9.25516 32.1958 9.25516 28.8309C9.25516 26.9744 9.19714 25.6256 9.11012 25.4515C8.93607 25.1469 8.26889 25.0744 8.15286 25.3645Z" fill="black"/>
<path d="M8.29811 35.4448C8.21108 35.5028 6.29657 37.8524 4.04846 40.6662C0.654548 44.9013 -0.0416392 45.8586 0.00187252 46.1777L0.0453842 46.5693L4.06297 46.6128L8.09505 46.6418L8.12406 57.7808L8.16757 68.9053H37.1029H66.0382L66.0817 57.7808L66.1107 46.6418L70.1428 46.6128L74.1603 46.5693L74.2039 46.1777C74.2474 45.8586 73.5512 44.9013 70.1573 40.6662C67.9092 37.8524 65.9946 35.5028 65.9076 35.4448C65.8206 35.3867 52.8541 35.3287 37.1029 35.3287C21.3516 35.3287 8.38513 35.3867 8.29811 35.4448ZM35.7105 36.6631C35.638 36.7646 34.0425 38.7952 32.1425 41.1593L28.6906 45.4815H15.26C7.87749 45.4815 1.85837 45.4234 1.88738 45.3654C1.91639 45.2929 3.49731 43.2769 5.41183 40.8692L8.89277 36.5035H22.3524C33.0853 36.489 35.7975 36.5326 35.7105 36.6631ZM68.7939 40.8692C70.7084 43.2769 72.3038 45.2929 72.3183 45.3654C72.3474 45.4234 66.3282 45.4815 58.9457 45.4815H45.5151L42.0632 41.1593C40.1632 38.7952 38.5678 36.7646 38.4952 36.6631C38.4082 36.5326 41.1204 36.489 51.8533 36.5035H65.313L68.7939 40.8692ZM36.5227 52.8059V67.9625H22.889H9.25536V57.3021V46.6418L19.3066 46.6128L29.3433 46.5693L32.8967 42.1166C34.8548 39.6654 36.4647 37.6639 36.4937 37.6639C36.5082 37.6494 36.5227 44.4662 36.5227 52.8059ZM54.9137 46.6128L64.9504 46.6418V57.3021V67.9625H51.3167H37.683V52.7914V37.6203L41.28 42.0875L44.8625 46.5693L54.9137 46.6128Z" fill="black"/>
</svg>
