<svg width="334" height="394" viewBox="0 0 334 394" fill="none" xmlns="http://www.w3.org/2000/svg">
<path d="M64.4743 52.4643C58.7681 55.2893 53.1538 61.8977 51.3585 67.9546C50.7915 69.8989 50.3314 70.6647 49.7657 70.6054C46.2774 70.0729 40.8087 70.0341 38.1094 70.4567C24.3891 72.6755 15.6 86.2356 18.9975 99.8624C21.4311 109.623 29.3344 117.619 41.3058 122.647C50.1901 126.342 64.5088 128.331 77.733 127.738C81.3043 127.599 84.239 127.518 84.2979 127.554C84.5925 127.731 87.1118 132.211 86.9232 132.258C86.8289 132.281 85.8155 132.033 84.6725 131.667C82.7871 131.136 82.0091 131.229 73.8756 133.157L65.1173 135.191L67.5448 135.887C72.7179 137.352 74.3207 137.554 79.872 137.321C83.0425 137.182 86.7197 137.267 88.1456 137.562L90.6204 138.047L94.9061 144.992C97.2255 148.871 99.8982 153.163 100.793 154.542C101.652 155.981 102.43 157.289 102.477 157.478C102.512 157.619 101.922 158.067 101.121 158.467C98.3854 159.75 95.6835 164.38 96.283 166.785C96.4241 167.351 97.4838 168.99 98.6497 170.452C99.8156 171.914 100.734 173.188 100.663 173.305C100.522 173.541 96.5858 172.619 93.9227 171.781L91.8959 171.084L92.1213 168.774C92.3471 165.863 91.3822 163.399 88.65 160.074C83.2561 153.506 73.3574 151.166 62.324 153.917C57.7031 155.069 46.2107 156.782 44.5019 156.557C42.3334 156.297 46.3247 162.864 51.625 168.253C55.5943 172.322 64.6426 177.679 69.1913 178.648C73.799 179.653 79.2561 179.444 83.0167 178.056C86.1053 176.985 89.7487 174.524 90.4096 173.157C90.74 172.474 91.1879 172.463 93.2972 173.089C94.6641 173.549 97.6101 174.317 99.8491 174.861C103.467 175.711 106.53 176.951 115.226 181.093C117.146 181.967 117.947 182.769 119.29 184.938C120.161 186.424 120.879 187.697 120.808 187.815C120.737 187.933 120.231 187.909 119.641 187.755C119.005 187.613 117.107 187.836 115.316 188.283C109.198 189.858 107.039 193.051 107.518 199.793C107.95 205.545 110.6 208.74 118.247 212.493C120.862 213.744 124.503 215.691 126.282 216.8L129.487 218.806L127.742 219.241C121.235 220.863 116.882 227.307 118.352 233.201C119.01 235.842 122.731 240.323 126.254 242.8C127.585 243.72 128.692 244.546 128.728 244.687C128.751 244.782 128.244 245.158 127.525 245.488C124.613 246.865 122.205 252.674 123.098 256.257C124.474 261.774 136.796 271.022 146.836 274.128C148.026 274.483 150.925 275.663 153.305 276.772C155.673 277.835 159.066 279.393 160.893 280.089C163.85 281.305 181.171 289.307 183.079 290.333C183.48 290.534 188.508 298.446 194.253 307.831C203.413 322.876 206.381 327.144 205.652 324.221C205.487 323.56 192.571 302.09 187.261 293.648C185.919 291.478 185.613 291.455 192.435 294.311C195.227 295.468 201.249 297.523 205.892 298.869C219.691 302.791 223.638 304.16 230.154 307.394C236.056 310.379 236.292 310.521 236.762 312.407C237.55 315.566 241.886 317.49 245.988 316.467C247.78 316.021 256.698 322.061 265.156 329.468C271.375 334.928 278.974 340.897 279.846 340.98C281.225 341.087 279.929 339.707 274.369 335.284C271.176 332.724 266.877 329.139 264.768 327.311C259.055 322.274 253.954 318.688 245.884 314.039C240.217 310.795 238.697 309.721 239.251 309.333C239.628 309.038 241.703 308.521 243.872 308.18C250.461 307.089 252.124 304.721 249.806 299.84C249.099 298.413 248.782 297.14 248.9 296.61C249.207 295.431 251.176 294.89 253.674 295.269C256.22 295.636 258.141 295.107 259.191 293.693C260.029 292.633 259.994 292.091 259.206 288.531C258.677 286.409 258.219 284.17 258.09 283.651C257.737 281.635 258.303 281.094 262.488 279.8C266.202 278.624 266.602 278.423 267.157 277.033C267.783 275.525 267.759 275.431 266.17 272.271C263.239 266.541 263.44 265.94 268.804 264.152C272.552 262.917 273.755 261.916 274.9 259.076L275.479 257.58L296.379 269.897C307.878 276.646 317.409 282.133 317.551 282.098C318.871 281.768 314.689 279.055 296.357 268.2C278.213 257.499 275.174 255.552 274.88 254.373C274.468 252.723 272.383 250.589 270.875 250.163C270.239 250.021 269.001 250.08 268.093 250.256C266.573 250.585 265.666 250.16 259.61 246.361C253.071 242.232 252.812 241.996 249.35 237.35C240.094 224.934 233.898 219.166 216.911 207.275C203.916 198.145 201.124 196.788 194.065 196.194C183.116 195.268 178.238 193.379 169.485 186.797C160.544 180.061 149.363 173.984 133.75 167.41C118.303 160.894 112.694 158.887 108.534 158.472C103.891 157.927 102.724 156.865 103.457 153.778C104.048 151.126 109.556 144.494 111.053 144.672C111.619 144.731 113.776 144.344 115.851 143.826C119.245 142.98 119.906 142.615 122.193 140.542C125.826 137.233 129.189 131.035 130.441 125.414C131.99 118.167 131.757 113.417 129.359 103.798C127.102 94.7449 126.466 93.6013 125.227 96.4645C123.834 99.7166 121.581 102.532 116.404 107.679C108.596 115.535 105.977 120.496 105.312 128.675C105.003 132.258 106.178 138.375 107.814 142.124L108.732 144.199L106.125 147.002C104.71 148.557 103.165 150.595 102.751 151.55C102.338 152.504 101.855 153.176 101.69 153.117C101.56 152.999 98.8991 148.754 95.7791 143.672C89.3506 133.155 89.4681 133.627 93.2179 130.789C95.3994 129.093 97.0038 126.689 97.229 124.58C97.4661 122.518 96.6679 117.308 96.1493 117.437C95.9135 117.496 95.5713 118.132 95.4412 118.815C95.3583 119.487 94.0015 121.679 92.4445 123.669C90.9464 125.696 89.389 128.288 89.0112 129.383L88.2674 131.422L86.8781 129.064L85.4417 126.718L87.7071 122.747C96.0256 107.902 100.253 95.329 100.85 83.4609C101.041 79.4067 100.912 78.0866 99.4073 72.0512C97.5853 64.5424 96.6671 62.6678 92.5568 58.0333C87.9046 52.8327 79.6683 49.5275 72.7141 50.1595C68.801 50.5342 67.8579 50.7693 64.4743 52.4643ZM77.0622 51.7298C84.9464 52.6188 91.6379 57.3609 95.7581 65.048C97.9713 69.1038 99.6866 77.7911 99.4236 83.5661C98.8979 94.9156 94.9302 106.923 87.426 120.013C83.4734 126.858 84.8528 126.163 74.9406 126.381C63.6966 126.68 51.6052 124.987 43.4984 122C38.5376 120.182 32.4819 116.583 28.9363 113.411C21.3623 106.535 18.2684 97.3397 20.4075 88.0419C22.0504 80.771 28.9023 74.1045 36.6822 72.1647C39.7471 71.4005 45.9937 71.3456 49.0694 72.0311L51.2023 72.5511L52.5601 68.7568C54.9924 61.84 59.7103 56.2564 65.2986 53.561C68.4346 52.0779 73.4442 51.2797 77.0622 51.7298ZM128.756 106.803C130.953 117.824 129.922 126.545 125.462 133.968C122.442 138.928 119.907 141.213 115.91 142.459C111.277 143.965 111.124 143.753 113.98 138.934C117.012 133.821 119.691 127.493 121.711 120.73C123.766 113.706 125.02 107.084 124.372 106.694C123.606 106.234 123.736 105.951 122.105 113.269C121.325 116.769 119.706 122.331 118.561 125.572C116.341 131.734 110.477 142.762 109.652 142.267C109.416 142.125 108.687 140.604 108.075 138.954C105.604 132.058 106.517 123.266 110.399 116.939C111.496 115.113 114.398 111.685 116.815 109.329C121.757 104.441 125.614 99.8237 125.768 98.6334C125.993 96.7243 127.593 101.133 128.756 106.803ZM53.7889 157.046C56.2996 156.671 60.4134 155.896 62.9124 155.272C75.3132 152.181 86.3542 156.089 90.0966 164.872C90.8145 166.546 91.0007 170.306 90.3406 170.47C90.2463 170.494 88.0664 169.585 85.5686 168.405C80.1486 165.95 77.7681 165.441 67.8213 164.516C59.3241 163.78 58.0631 163.543 56.4374 162.446C55.1179 161.573 54.4225 161.596 54.6459 162.492C55.0573 164.142 58.3333 165.028 67.9383 165.989C78.9339 167.104 80.0534 167.376 85.6147 169.996C89.9977 172.108 90.08 172.438 86.8139 174.605C81.8972 177.784 75.4615 178.687 69.2159 177.139C65.2682 176.171 58.8352 172.666 55.0893 169.493C52.4742 167.24 47.4924 161.521 46.0207 159.033C45.432 158.078 45.5146 158.008 47.2826 157.867C48.3552 157.75 51.2783 157.422 53.7889 157.046ZM107.963 166.427C110.153 169.988 112.049 173.171 112.296 173.56C112.649 174.173 112.119 174.255 108.571 174.088C106.297 174.004 104.093 173.803 103.692 173.602C102.502 173.047 99.3695 169.121 99.0521 167.847C98.5583 165.867 99.7386 163.169 101.661 161.638C102.616 160.849 103.547 160.166 103.736 160.119C103.925 160.072 105.832 162.902 107.963 166.427ZM110.454 160.147C112.457 160.549 127.493 166.015 129.413 167.089C129.767 167.301 128.928 170.365 127.488 173.629C126.095 176.881 126.095 177.081 127.038 176.846C127.887 176.634 129.504 173.276 130.283 170.177C130.626 168.94 130.957 167.856 131.098 167.821C131.523 167.715 143.659 173.203 147.629 175.268L151.494 177.309L151.057 178.971C150.785 179.89 149.829 181.681 148.944 182.953C147.328 185.309 147.304 186.217 148.813 185.24C149.969 184.451 151.031 182.884 152.081 180.268L153.002 177.935L159.8 182.1C163.523 184.377 168.035 187.409 169.837 188.812C171.64 190.216 174.337 191.997 175.775 192.741L178.461 194.074L173.323 193.552C170.506 193.303 167.147 192.889 165.839 192.664C164.531 192.439 161.09 192.295 158.202 192.364C150.588 192.56 145.132 191.767 141.256 189.879C137.273 187.967 131.864 186.16 127.928 185.439C126.243 185.108 123.722 184.033 121.719 182.83L118.396 180.754L112.062 170.413C106.069 160.639 105.834 160.097 106.777 159.861C107.296 159.732 108.981 159.863 110.454 160.147ZM112.683 175.918C113.426 176.083 114.321 176.661 114.604 177.192C114.898 177.769 115.392 178.548 115.699 178.972C116.252 179.786 112.635 178.534 108.782 176.54L106.708 175.454L108.983 175.538C110.256 175.621 111.894 175.764 112.683 175.918ZM125.122 187.04C125.099 187.346 125.11 188.195 125.145 188.937C125.144 189.739 124.955 190.387 124.719 190.446C124.342 190.54 120.928 185.281 120.645 184.149C120.598 183.961 121.6 184.362 122.837 185.105C124.121 185.837 125.146 186.733 125.122 187.04ZM129.837 187.267C133.596 188.283 138.333 190.006 140.854 191.281C142.633 192.189 142.704 192.272 142.243 193.439C141.547 195.265 140.321 195.37 135.266 193.976C128.113 192.003 127.206 191.378 126.466 187.606C126.372 187.029 126.348 186.534 126.49 186.498C126.631 186.463 128.116 186.794 129.837 187.267ZM120.241 189.358C121.019 189.665 122.103 190.397 122.609 191.022C123.987 192.531 126.164 198.048 125.893 199.168C125.585 200.346 122.154 203.456 120.079 204.374C118.464 205.127 117.897 206.671 119.311 206.318C120.867 205.93 124.487 203.375 125.915 201.667L127.542 199.758L128.673 201.079C129.297 201.775 130.451 203.39 131.322 204.675L132.794 206.963L131.921 207.882C131.45 208.4 130.53 209.13 129.858 209.448C129.15 209.825 128.667 210.296 128.714 210.484C128.937 211.38 129.986 211.169 131.755 209.826L133.548 208.378L136.256 212.811C137.704 215.204 138.928 217.303 138.975 217.492C139.01 217.633 137.254 217.821 135.133 217.949L131.22 218.123L126.047 215.056C123.185 213.416 119.249 211.292 117.376 210.406C115.444 209.486 113.252 208.129 112.522 207.41C110.802 205.735 109.696 203.707 110.403 203.531C110.733 203.448 110.663 202.364 110.252 200.714C109.464 197.555 110.008 194.114 111.577 192.37C112.167 191.722 113.888 190.792 115.397 190.216C116.918 189.686 118.332 189.133 118.521 189.086C118.698 188.992 119.476 189.099 120.241 189.358ZM130.504 193.961C134.805 195.544 139.99 196.655 141.405 196.302C142.112 196.126 142.879 195.384 143.339 194.417L144.094 192.827L148.396 193.407C150.788 193.762 154.783 193.918 157.317 193.837C162.268 193.604 166.169 193.984 166.333 194.644C166.392 194.88 166.25 195.116 166.015 195.174C165.307 195.351 164.209 198.579 164.669 199.016C164.928 199.252 165.682 198.462 166.532 197.049C167.311 195.753 168.136 194.645 168.325 194.598C168.938 194.445 178.119 195.512 183.799 196.4C186.816 196.849 190.893 197.335 192.838 197.501C200.381 198.025 202.655 199.11 215.566 208.111C231.765 219.448 239.127 226.076 246.499 235.958C248.383 238.493 250.456 241.181 251.115 242.019C251.775 242.856 257.241 246.501 263.214 250.17C275.149 257.462 274.854 257.084 272.354 260.512C271.433 261.844 270.726 262.22 268.463 262.785C262.333 264.313 261.389 266.552 264.567 272.27C266.298 275.394 266.357 275.63 265.543 276.985C264.976 277.927 264.387 278.175 261.499 278.644C258.34 279.231 258.069 279.349 257.219 280.763C256.37 282.177 256.37 282.577 257.428 286.821C258.051 289.32 258.426 291.831 258.32 292.408C257.977 293.645 256.115 294.21 253.51 293.808C251.071 293.464 249.185 293.935 248.052 295.218C247.203 296.232 247.203 296.432 248.45 300.027C250.156 305.061 250.05 305.238 243.543 306.66C240.596 307.294 238.286 308.071 237.79 308.495C237.059 309.178 236.34 308.906 231.922 306.652C226.172 303.679 221.919 302.085 212.456 299.286C208.732 298.211 203.866 296.77 201.698 296.108C196.996 294.727 190.279 292.094 186.827 290.3C184.412 289.05 184.259 288.837 176.712 276.445C172.532 269.524 169.024 263.688 168.977 263.5C168.918 263.264 169.39 261.944 169.992 260.542C171.385 257.29 171.504 254.756 170.556 244.725C170.135 240.223 169.82 234.742 169.869 232.527C169.978 226.339 168.169 218.276 166.824 219.112C166.53 219.336 166.741 220.786 167.411 223.273C168.175 225.937 168.433 228.177 168.373 230.746C168.324 232.761 168.627 238.596 169.06 243.746C169.481 248.85 169.843 253.918 169.819 255.026C169.759 256.994 168.542 261.154 167.929 261.307C167.788 261.342 166.74 259.951 165.645 258.17L163.678 254.904L164.081 252.3C164.329 250.886 164.378 249.071 164.189 248.316C163.884 247.09 163.53 246.878 161.02 246.452L158.239 245.943L156.073 242.477C152.529 236.7 152.658 237.218 154.415 236.43C156.301 235.559 159.179 231.435 159.806 228.725C160.408 226.121 159.95 224.282 158.019 221.758C156.817 220.155 156.04 219.647 154.461 219.34L152.41 218.95L153.236 217.041C154.771 213.553 154.818 213.542 162.831 215.951C166.79 217.167 171.787 218.526 173.908 218.999C177.255 219.767 177.714 220.003 177.702 220.958C177.629 223.881 178.509 229.621 179.427 232.097C181.651 238.003 184.266 241.057 193.054 247.981C200.522 253.831 208.993 258.28 214.202 259.085C216.383 259.393 216.524 259.357 216.336 258.603C216.265 258.32 214.651 257.671 212.836 257.222C204.116 255.189 187.411 243.428 183.125 236.283C180.841 232.545 178.901 225.166 179.139 221.3L179.282 218.861L176.207 218.175C174.51 217.797 169.183 216.32 164.376 214.915C159.556 213.462 151.543 211.453 146.558 210.342L137.472 208.451L134.186 205.113C129.757 200.608 126.802 196.587 126.178 194.289C125.649 192.167 125.921 191.248 126.757 192.191C127.087 192.51 128.784 193.289 130.504 193.961ZM145.85 211.721C149.845 212.478 153.263 213.128 153.369 213.152C153.816 213.341 150.937 218.466 150.277 218.63C149.381 218.854 143.536 218.508 142.145 218.154C141.497 217.965 140.225 216.479 138.624 213.873C137.282 211.704 135.88 209.499 135.563 209.027C135.103 208.39 135.422 208.461 136.765 209.228C137.719 209.842 141.843 210.917 145.85 211.721ZM136.853 219.223C141.449 219.179 141.897 219.367 140.411 220.84C138.17 223.101 138.215 226.696 140.641 229.397C141.784 230.764 147.392 232.772 150.775 233.08C152.26 233.211 152.578 233.081 153.298 231.95C153.734 231.291 154.561 228.781 155.175 226.424C155.742 224.079 156.427 222.205 156.698 222.288C157.464 222.548 158.488 225.047 158.593 226.874C158.768 229.384 155.96 233.991 153.496 235.357C151.822 236.275 150.761 236.439 144.785 236.577C135.239 236.854 132.858 237.147 133.104 238.137C133.222 238.608 133.717 238.786 134.377 238.621C135.379 238.421 135.344 238.48 134.329 239.434C133.669 240 133.233 240.659 133.291 240.895C133.479 241.649 134.753 241.132 136.557 239.53L138.196 238.069L143.087 238.002C149.511 237.853 149.57 237.888 148.884 240.363C147.975 243.544 147.574 243.744 143.261 242.917C140.056 242.314 138.759 242.336 134.987 243.076L130.496 243.946L127.551 241.976C123.805 239.404 120.401 235.395 119.754 232.801C118.849 229.171 120.761 224.587 123.98 222.432C126.209 220.925 132.916 219.303 136.853 219.223ZM148.874 220.232C151.148 220.316 153.47 220.589 154.036 220.848C155.037 221.25 155.084 221.438 154.092 225.091C153.572 227.224 152.816 229.616 152.462 230.406L151.777 231.879L149.397 231.37C144.412 230.259 142.444 229.398 141.267 227.688C139.983 225.955 139.843 224.587 140.751 222.808C141.955 220.405 143.488 219.922 148.874 220.232ZM153.61 241.238C154.764 243.054 155.812 244.846 155.894 245.176C155.988 245.553 154.869 245.482 152.747 245.009C150.897 244.619 149.353 244.252 149.236 244.182C149.012 244.087 150.866 238.066 151.184 237.936C151.326 237.901 152.444 239.375 153.61 241.238ZM145.063 244.721L150.154 245.856L148.928 246.763C148.173 247.351 147.512 248.518 147.299 249.673C146.968 251.358 147.062 251.935 147.863 253.338C148.993 255.26 150.69 256.039 155.486 256.797C157.419 257.116 158.821 257.518 158.679 257.753C158.184 258.578 152.432 259.611 145.584 260.067C134.846 260.791 134.61 260.85 135.034 261.545C135.223 261.899 136.012 262.053 136.696 261.982C138.735 261.724 138.44 262.549 136.176 263.514C134.903 264.032 134.184 264.562 134.29 264.986C134.525 265.929 135.904 265.435 138.922 263.481C141.292 261.938 141.847 261.75 145.1 261.54C147.009 261.364 148.812 261.365 149.036 261.46C149.613 261.767 148.691 267.506 147.829 269.073C147.275 270.062 147.274 270.463 147.769 270.64C148.794 270.936 150.246 267.518 150.519 264.195L150.722 261.39L154.753 260.485C158.042 259.815 159.032 259.368 160.4 258.226C161.249 257.413 162.228 256.718 162.511 256.648C162.793 256.577 163.9 258.004 164.96 259.843L166.95 263.204L166.124 264.712C162.171 272.158 161.781 273.006 162.429 273.396C162.901 273.679 163.278 273.384 163.774 272.359C164.777 270.156 167.892 264.772 168.021 264.89C168.269 265.078 182.032 287.74 182.103 288.023C182.138 288.164 178.32 286.512 173.619 284.328C168.953 282.086 164.052 279.903 162.779 279.418C161.495 278.887 158.019 277.4 155.073 276.031C152.128 274.662 147.945 272.95 145.8 272.183C140.474 270.306 130.201 263.852 127.303 260.468C124.288 257.013 123.677 254.761 124.893 251.403C126.463 247.055 127.442 246.36 135.128 244.644C139.972 243.586 140.125 243.598 145.063 244.721ZM157.484 247.534C162.292 247.938 162.339 247.926 162.668 249.447C162.833 250.307 162.773 251.875 162.548 252.982C162.158 254.833 161.958 255.033 160.201 255.421C157.455 256.055 150.914 254.731 149.607 253.304C148.276 251.783 148.159 251.111 148.961 249.308C149.823 247.341 151.391 247 157.484 247.534ZM271.864 252.321C274.149 254.055 273.642 254.832 271.121 253.357C269.836 252.626 268.741 251.847 268.694 251.659C268.517 250.951 270.686 251.413 271.864 252.321ZM244.763 315.17C244.645 315.3 243.761 315.37 242.783 315.263C240.744 315.12 238.588 313.705 238.236 312.29C238.059 311.583 238.696 311.725 241.453 313.141C243.35 314.12 244.822 315.005 244.763 315.17Z" fill="black"/>
<path d="M185.15 221.504C185.715 222.365 190.359 221.708 201.086 219.134C207.039 217.7 210.399 216.712 210.328 216.429C210.258 216.146 206.839 216.698 201.559 217.814C196.761 218.86 191.021 219.941 188.805 220.293C185.481 220.821 184.832 221.033 185.15 221.504Z" fill="black"/>
<path d="M44.8532 47.7239L82.57 43.0929L100.796 60.2409L106.007 102.681L85.4238 127.877L39.3138 142.102L10.1824 85.3677L44.8532 47.7239Z" fill="#FCF5F5"/>
<path d="M15.9466 90.7507C16.0748 84.5943 20.1508 78.0158 25.9177 74.754C25.918 74.7539 25.9182 74.7537 25.9185 74.7536L27.6387 73.7755L28.3084 74.4774L26.3774 77.5316C26.377 77.5323 26.3765 77.533 26.3761 77.5337C23.9665 81.4361 23.3146 85.6713 24.3325 89.9315C25.3531 94.2026 28.0609 98.5308 32.426 102.574L32.4261 102.574C37.4317 107.213 45.1593 111.576 53.8507 114.952C62.5366 118.325 72.1457 120.696 80.8908 121.373L80.895 121.374L84.9018 121.718L85.7595 121.791L85.2706 122.5L84.3025 123.903L84.3025 123.903L84.2984 123.909C84.0592 124.245 83.8206 124.553 83.5066 124.794C83.1817 125.044 82.8067 125.201 82.3208 125.298C81.3947 125.481 79.9507 125.462 77.4342 125.389C68.0591 125.231 57.6292 123.122 48.1489 119.784C38.6726 116.446 30.1024 111.865 24.4725 106.736C22.3715 104.822 20.2258 101.817 18.6185 98.8259C17.8129 97.3266 17.1361 95.8186 16.6654 94.4378C16.1977 93.0657 15.9214 91.7848 15.9466 90.7507ZM15.9466 90.7507C15.9466 90.7511 15.9466 90.7514 15.9466 90.7517L16.4465 90.7621L15.9466 90.7498C15.9466 90.7501 15.9466 90.7504 15.9466 90.7507ZM19.8864 76.0858L19.883 76.0891C15.5285 80.3903 13.1889 86.2872 13.4473 92.2199L13.4474 92.2234C13.6162 96.8473 16.7663 102.943 21.321 107.348L21.3226 107.35C29.3178 115.15 45.18 122.812 60.0795 126.012L60.082 126.012C65.8669 127.285 76.5495 128.238 81.6384 127.984C81.6387 127.984 81.6391 127.984 81.6394 127.984L84.9688 127.803L88.2389 122.657C88.2392 122.656 88.2395 122.656 88.2399 122.655C95.9326 110.36 101.063 95.698 102.922 80.3084L102.922 80.3073C103.651 74.3816 103.829 70.001 103.355 66.2095C102.881 62.4289 101.756 59.2113 99.8453 55.6185L99.8426 55.6133C98.7055 53.4123 98.0588 52.233 97.3084 51.3219C96.5671 50.4219 95.7098 49.7665 94.0977 48.6566L94.0955 48.6551C90.2165 45.9539 85.772 44.7232 80.5071 45.0336C78.4203 45.1661 75.6282 45.9767 72.8312 47.1967C70.0395 48.4144 67.2906 50.0192 65.2869 51.7049L65.2858 51.7057C62.0124 54.4439 57.6104 60.0502 55.1995 64.5979L55.1983 64.6002L53.2442 68.2407L53.0845 68.5382L52.7489 68.5012L49.3876 68.1311L49.387 68.1311C44.6017 67.5985 37.4857 67.9872 33.4807 68.9932L33.4777 68.9939C31.4334 69.4941 28.6184 70.6749 26.0035 72.0416C23.3802 73.4127 21.0316 74.933 19.8864 76.0858Z" fill="#F8DCDC" stroke="black"/>
</svg>
