<svg width="111" height="22" viewBox="0 0 111 22" fill="none" xmlns="http://www.w3.org/2000/svg">
<path d="M105.557 20.9643C105.019 20.5658 104.177 19.9228 102.84 18.9023L102.735 18.8216L102.733 18.8203L99.8228 16.5784L99.5194 16.3447L99.2148 16.5767L95.873 19.1207C94.9482 19.8197 94.1011 20.4416 93.4791 20.8794C93.4712 20.885 93.4633 20.8905 93.4554 20.896C93.4601 20.8792 93.4648 20.8621 93.4696 20.8449C93.6728 20.1123 93.9679 19.1141 94.3015 18.0271C94.636 16.9373 94.9435 15.9286 95.17 15.1843L95.3239 14.6785L95.4423 14.2892L95.5201 14.0339L95.542 13.9626C95.5453 13.9518 95.5473 13.9454 95.5483 13.9423C95.5491 13.9396 95.5492 13.9393 95.5489 13.9405L95.5639 13.8955L95.5701 13.8484C95.5852 13.7356 95.5598 13.6452 95.5439 13.5993C95.5262 13.5488 95.5042 13.5083 95.4879 13.4813C95.4555 13.4274 95.4174 13.3801 95.3862 13.344C95.3219 13.2695 95.2369 13.186 95.1438 13.1C94.9547 12.9253 94.6892 12.7016 94.3779 12.4503C93.7529 11.9459 92.9167 11.3088 92.0734 10.6888C91.23 10.0688 90.3735 9.46147 89.7075 9.01701C89.6261 8.96272 89.5472 8.91057 89.4711 8.8609L96.8039 8.80391L97.1691 8.80107L97.2775 8.45235L98.5711 4.29109L105.557 20.9643ZM105.557 20.9643C105.545 20.9216 105.533 20.8779 105.52 20.8331C105.309 20.0811 105.003 19.0507 104.648 17.9225L104.648 17.9219C104.153 16.3382 103.845 15.2918 103.687 14.6164C103.609 14.282 103.56 14.0127 103.549 13.8038C103.544 13.6994 103.546 13.5862 103.571 13.4765C103.595 13.3666 103.65 13.222 103.78 13.1067L103.78 13.1066L103.786 13.1008C103.952 12.9586 105.505 11.7783 107.195 10.4945C107.195 10.4943 107.195 10.4941 107.196 10.494L109.155 8.99726L106.414 8.95487L106.412 8.95484L102.209 8.91174L101.843 8.90799L101.736 8.55881L100.442 4.35293L100.441 4.34914C100.097 3.1997 99.7642 2.15359 99.5101 1.39662C99.5099 1.39606 99.5097 1.39551 99.5095 1.39495C99.2559 2.14034 98.9249 3.16556 98.5716 4.28961L105.557 20.9643ZM10.1634 4.34914L10.1634 4.34915L10.1622 4.35292L8.86808 8.55881L8.76065 8.90797L8.39535 8.91174L4.21357 8.95484L4.21104 8.95487L1.45789 8.99724L3.6883 10.6878L3.68986 10.689C4.83384 11.5632 5.68652 12.2405 6.24471 12.7296C6.52152 12.9721 6.74091 13.1813 6.88899 13.353C6.96132 13.4369 7.03413 13.5316 7.08598 13.6313C7.12274 13.702 7.22467 13.9142 7.13158 14.1555C6.923 14.7093 6.32062 16.6639 5.77174 18.5133C5.50174 19.4231 5.24724 20.2987 5.06297 20.9548C5.61584 20.5452 6.48475 19.8809 7.8707 18.8205L7.87069 18.8205L7.87264 18.8191L10.806 16.5975L11.1073 16.3692L11.4091 16.597L14.7522 19.1205L14.7522 19.1205L14.7547 19.1224C15.667 19.82 16.5081 20.4361 17.1271 20.871C17.1373 20.8782 17.1475 20.8853 17.1576 20.8924C17.1524 20.8734 17.1472 20.8542 17.1419 20.8347C16.9419 20.1014 16.6474 19.1055 16.3042 18.0328L16.3041 18.0328L16.3024 18.0271C15.9679 16.9373 15.6604 15.9286 15.4339 15.1843L15.28 14.6785L15.1616 14.2892L15.0838 14.0339L15.0619 13.9626C15.0586 13.9518 15.0566 13.9455 15.0556 13.9423C15.0548 13.9396 15.0547 13.9393 15.0551 13.9405L15.0463 13.9142L15.0405 13.8871C15.014 13.7634 15.0391 13.6621 15.0551 13.6124C15.0726 13.5576 15.0958 13.5143 15.1121 13.4866C15.1449 13.4312 15.1838 13.383 15.2144 13.3475C15.2783 13.2736 15.363 13.1906 15.4555 13.1056C15.6437 12.9324 15.909 12.7097 16.2206 12.459C16.8461 11.9556 17.6848 11.318 18.5308 10.6968C19.3767 10.0755 20.2356 9.46632 20.902 9.0204C20.985 8.96485 21.0654 8.91154 21.1429 8.86083L13.8 8.80391L13.4331 8.80106L13.3258 8.45009L12.0544 4.29109C12.0542 4.29048 12.054 4.28988 12.0538 4.28927C11.6991 3.16073 11.361 2.13055 11.1042 1.384C11.1036 1.38238 11.103 1.38076 11.1025 1.37914C11.1003 1.38544 11.0982 1.39177 11.096 1.39812C10.8396 2.15403 10.5072 3.19953 10.1634 4.34914ZM87.2164 8.87514L80.13 8.91176L79.7578 8.91368L79.6492 8.55758L79.11 6.78895L79.1099 6.78872C78.9602 6.29677 78.7499 5.61948 78.5276 4.90387C78.2916 4.14356 78.042 3.33999 77.8374 2.66943C77.6918 2.19217 77.5438 1.74484 77.4112 1.37408C77.3123 1.64773 77.1994 1.97273 77.0749 2.34313C76.6463 3.61829 76.0876 5.40697 75.4958 7.42981C75.4957 7.43007 75.4957 7.43033 75.4956 7.43059L75.1726 8.55034L75.0678 8.91371L74.6896 8.91176L67.6078 8.87516C68.3209 9.40432 69.3781 10.2157 70.3759 10.994C71.1306 11.5827 71.8632 12.1616 72.4079 12.6023C72.6798 12.8222 72.9078 13.0101 73.0692 13.1483C73.149 13.2167 73.2178 13.2774 73.2688 13.3258C73.2931 13.3489 73.3215 13.3768 73.3468 13.4054C73.3586 13.4188 73.3793 13.443 73.4001 13.4742C73.4104 13.4896 73.4275 13.5167 73.4435 13.5525C73.4562 13.5809 73.4882 13.6574 73.4882 13.7608C73.4882 13.8108 73.4804 13.8531 73.4786 13.8628L73.4784 13.8639C73.477 13.8715 73.4755 13.879 73.474 13.8862C73.4721 13.8952 73.4702 13.9036 73.4685 13.9111C73.4621 13.9384 73.4538 13.9706 73.4445 14.0047C73.4259 14.0738 73.3992 14.167 73.3662 14.2794C73.3 14.505 73.2049 14.8194 73.0889 15.1985C72.8568 15.9571 72.5384 16.9822 72.1936 18.0921C71.8538 19.1965 71.5623 20.1924 71.3676 20.9154C71.3913 20.8984 71.4154 20.8811 71.4398 20.8636C72.0604 20.4168 72.892 19.7999 73.7842 19.1226C74.7376 18.386 75.5821 17.7701 76.2114 17.3469C76.5247 17.1362 76.7936 16.9672 77 16.8545C77.101 16.7993 77.2025 16.749 77.2946 16.7153C77.3394 16.6988 77.4007 16.6793 77.4693 16.6696C77.5187 16.6626 77.6726 16.6443 77.8304 16.7345C77.9019 16.7753 78.0558 16.8885 78.2274 17.0163C78.4168 17.1573 78.6717 17.3499 78.9738 17.5792C79.2675 17.8021 79.6095 18.0625 79.9813 18.3455C80.3711 18.6424 80.7937 18.9642 81.2279 19.294C82.0749 19.9373 82.8554 20.5039 83.4299 20.9002C83.4201 20.8627 83.4101 20.8244 83.3997 20.7852C83.2052 20.0499 82.9163 19.049 82.5835 17.9645C82.2378 16.8736 81.9299 15.8689 81.7082 15.1282C81.5974 14.7577 81.5077 14.4521 81.4456 14.2343C81.4146 14.1257 81.3899 14.0369 81.3727 13.972C81.3641 13.94 81.3566 13.9106 81.3509 13.8862C81.3481 13.8743 81.3448 13.8597 81.3419 13.8445C81.3418 13.8442 81.3314 13.7956 81.3314 13.7392C81.3314 13.6179 81.3759 13.5306 81.387 13.5087C81.4046 13.4743 81.4226 13.4486 81.4324 13.4352C81.4527 13.4076 81.4726 13.3858 81.4836 13.3742C81.5075 13.3487 81.5348 13.323 81.5589 13.3009C81.6094 13.2547 81.6783 13.1953 81.7594 13.1272C81.9232 12.9896 82.1551 12.8012 82.4318 12.5796C82.9861 12.1356 83.7303 11.5509 84.493 10.9584C85.4802 10.1913 86.5201 9.39392 87.2164 8.87514ZM28.8957 15.1282C28.674 15.869 28.3661 16.8736 28.0205 17.9646C27.6876 19.049 27.3987 20.0499 27.2042 20.7852C27.1939 20.8244 27.1838 20.8627 27.174 20.9002C27.7485 20.5039 28.529 19.9373 29.376 19.294C31.0662 18.0103 32.5978 16.8502 32.7442 16.7526L32.7701 16.7353L32.798 16.7214C32.9363 16.6523 33.0668 16.6607 33.1243 16.6672C33.193 16.675 33.2546 16.6927 33.3013 16.7085C33.3959 16.7406 33.498 16.7891 33.5986 16.8423C33.8036 16.9509 34.0681 17.1149 34.3778 17.3218C35.0004 17.7377 35.8461 18.3546 36.8426 19.1237C37.7338 19.8109 38.5642 20.4269 39.1804 20.8644C39.203 20.8804 39.2253 20.8962 39.2473 20.9118C39.2433 20.8967 39.2393 20.8815 39.2353 20.8662C39.0435 20.1419 38.7546 19.1464 38.4112 18.0516L38.3806 17.9542C38.0474 16.8922 37.7408 15.915 37.5155 15.1865C37.3994 14.8114 37.3044 14.5004 37.2381 14.2771C37.2051 14.1658 37.1784 14.0735 37.1597 14.0049C37.1505 13.9711 37.1421 13.9391 37.1357 13.9118C37.1325 13.8984 37.1288 13.8818 37.1256 13.8644C37.1243 13.8573 37.1157 13.8133 37.1157 13.7608C37.1157 13.6574 37.1477 13.5809 37.1604 13.5525C37.1765 13.5167 37.1935 13.4896 37.2038 13.4742C37.2246 13.443 37.2454 13.4188 37.2571 13.4054C37.2824 13.3768 37.3108 13.3489 37.3352 13.3258C37.3861 13.2774 37.4549 13.2167 37.5347 13.1483C37.6961 13.0101 37.9241 12.8222 38.196 12.6023C38.7408 12.1616 39.4733 11.5827 40.228 10.994C41.2259 10.2157 42.283 9.40432 42.9961 8.87516L35.9143 8.91176L35.5362 8.91371L35.4314 8.55034L35.1084 7.43059C35.1083 7.43028 35.1082 7.42998 35.1081 7.42967C34.5163 5.40689 33.9576 3.61827 33.529 2.34313C33.4045 1.97273 33.2917 1.64773 33.1927 1.37408C33.0601 1.74484 32.9121 2.19217 32.7665 2.66943C32.5618 3.34035 32.3122 4.14417 32.076 4.90464C31.8539 5.61992 31.6437 6.29683 31.494 6.78872L31.494 6.78895L30.9547 8.55758L30.8462 8.91369L30.4739 8.91176L23.3903 8.87506C23.5531 8.9963 23.7331 9.13165 23.9241 9.27616C24.5551 9.75369 25.3388 10.3563 26.103 10.9503C26.867 11.5443 27.6132 12.131 28.1693 12.5766C28.4468 12.7991 28.6794 12.9883 28.8437 13.1264C28.9251 13.1948 28.9942 13.2544 29.0448 13.3007C29.069 13.3228 29.0963 13.3486 29.1203 13.3741C29.1312 13.3857 29.1511 13.4075 29.1714 13.435C29.1812 13.4484 29.1992 13.474 29.2167 13.5083L29.2167 13.5084C29.2278 13.5301 29.2726 13.6176 29.2726 13.7392C29.2726 13.7943 29.2626 13.8418 29.2621 13.8444L29.262 13.8445C29.2591 13.8597 29.2558 13.8743 29.2531 13.8862C29.2473 13.9106 29.2398 13.94 29.2313 13.972C29.214 14.0369 29.1893 14.1257 29.1583 14.2343C29.0962 14.4521 29.0065 14.7577 28.8957 15.1282ZM45.3484 8.86017C45.4124 8.9017 45.478 8.94484 45.5449 8.98942C46.2204 9.43912 47.0741 10.0619 47.9071 10.7037C48.7401 11.3454 49.5613 12.0129 50.1708 12.5532C50.4739 12.8221 50.7339 13.0675 50.9181 13.2669C51.0087 13.3649 51.0935 13.4652 51.1567 13.5602C51.1878 13.607 51.2241 13.6678 51.2512 13.7375C51.2724 13.7919 51.3118 13.9101 51.2881 14.0543C51.2792 14.1157 51.261 14.1894 51.2462 14.2476C51.226 14.3268 51.1986 14.4278 51.1652 14.5463C51.0984 14.7838 51.0051 15.1017 50.8929 15.4761C50.6684 16.2255 50.3658 17.2089 50.042 18.2452C49.7215 19.2708 49.4443 20.2089 49.2549 20.8987C49.2637 20.8925 49.2726 20.8862 49.2815 20.8799C49.9004 20.4425 50.7417 19.8209 51.6551 19.1224L51.656 19.1218L54.9991 16.5767L55.302 16.3461L55.6048 16.5767L58.948 19.1218L58.9488 19.1224C59.8622 19.8209 60.7035 20.4425 61.3224 20.8799C61.3314 20.8862 61.3402 20.8925 61.349 20.8987C61.1597 20.2089 60.8825 19.2707 60.562 18.2452C60.2381 17.2089 59.9355 16.2255 59.711 15.4761C59.5988 15.1017 59.5055 14.7838 59.4387 14.5463C59.4054 14.4278 59.3779 14.3268 59.3577 14.2476C59.3429 14.1893 59.3247 14.1157 59.3158 14.0542C59.2921 13.91 59.3315 13.7919 59.3527 13.7375C59.3799 13.6678 59.4161 13.607 59.4473 13.5602C59.5104 13.4652 59.5952 13.3649 59.6858 13.2669C59.87 13.0675 60.13 12.8221 60.4332 12.5532C61.0426 12.0129 61.8638 11.3454 62.6968 10.7037C63.5299 10.0619 64.3836 9.43912 65.059 8.98942C65.1259 8.94485 65.1915 8.9017 65.2556 8.86017L58.0157 8.80391L57.6506 8.80107L57.5421 8.45235L56.2485 4.29109C56.2484 4.29095 56.2484 4.29081 56.2484 4.29067C55.8952 3.16695 55.5585 2.14067 55.302 1.39469C55.0454 2.14067 54.7087 3.16695 54.3556 4.29067C54.3555 4.29081 54.3555 4.29095 54.3554 4.29109L53.0618 8.45235L52.9534 8.80107L52.5882 8.80391L45.3484 8.86017Z" fill="#F8DCDC" stroke="black"/>
</svg>
