<svg width="79" height="78" viewBox="0 0 79 78" fill="none" xmlns="http://www.w3.org/2000/svg">
<circle cx="39.4973" cy="38.951" r="38.451" stroke="#404040"/>
<path d="M53.8214 25.756L53.8332 25.8046C54.3695 25.6742 55.0257 25.8557 55.448 26.2561C55.7895 26.583 55.9639 26.9889 55.9639 27.4996C55.9639 27.5326 55.952 27.6216 55.9255 27.7749C55.8994 27.9261 55.8598 28.1353 55.8063 28.4054C55.6993 28.9456 55.5366 29.728 55.314 30.7732C54.8688 32.8636 54.1841 36.0044 53.2263 40.3594C52.4743 43.7753 51.7821 46.8994 51.2724 49.1797C51.0175 50.3199 50.8082 51.2491 50.6599 51.8984C50.5857 52.223 50.5268 52.4776 50.485 52.6535C50.4641 52.7414 50.4476 52.8095 50.4356 52.8568C50.4296 52.8805 50.4248 52.8987 50.4212 52.9114L50.417 52.9256C50.4167 52.9264 50.4165 52.927 50.4164 52.9275C50.3596 53.0368 50.2518 53.1722 50.1269 53.2971C50.0016 53.4224 49.8635 53.5327 49.7498 53.5931C49.5959 53.6735 49.3495 53.7126 49.0991 53.7062C48.8484 53.6997 48.6062 53.6479 48.46 53.5574L48.4588 53.5567L48.4588 53.5567C48.4326 53.5415 48.3458 53.4806 48.205 53.3785C48.0655 53.2774 47.8758 53.1379 47.6461 52.9677C47.1866 52.6273 46.5673 52.1644 45.87 51.6406C44.4754 50.593 42.7694 49.3023 41.4077 48.2623L41.4076 48.2623L40.4947 47.5664L40.4603 47.5401L40.4294 47.5704L38.222 49.733L38.2219 49.733C37.185 50.7512 36.6288 51.2924 36.3 51.5793C36.1354 51.7229 36.0307 51.8002 35.953 51.8418C35.8783 51.8818 35.8291 51.8887 35.7726 51.8887C35.6368 51.8887 35.4885 51.827 35.3736 51.7351C35.2573 51.642 35.1866 51.5276 35.1866 51.4299C35.1866 51.3948 35.2163 50.9602 35.2641 50.2829C35.3118 49.6076 35.3773 48.6947 35.4484 47.707M53.8214 25.756L35.3985 47.7034M53.8214 25.756L53.8333 25.8046L53.8333 25.8046C53.8333 25.8046 53.8326 25.8048 53.831 25.8053L53.8244 25.8074L53.8018 25.8151C53.783 25.8216 53.757 25.831 53.724 25.843C53.6581 25.8669 53.5648 25.9014 53.4458 25.9458C53.2079 26.0344 52.8678 26.1624 52.4401 26.324C51.5847 26.6472 50.3792 27.105 48.94 27.6528C46.0617 28.7484 42.2492 30.2041 38.4357 31.6628C34.6222 33.1215 30.8079 34.5832 27.9258 35.691C26.4848 36.2449 25.2769 36.7103 24.4187 37.0426C23.9896 37.2088 23.648 37.3417 23.4085 37.4357C23.2887 37.4827 23.1945 37.5199 23.1277 37.5467C23.0593 37.5742 23.0225 37.5896 23.0146 37.5936C22.7002 37.7543 22.5368 38.1255 22.5377 38.5077C22.5386 38.8898 22.7037 39.2633 23.0223 39.4278L23.0228 39.4281C23.0334 39.4337 23.0707 39.449 23.1374 39.4743C23.2022 39.4989 23.2914 39.5316 23.4021 39.5716C23.6236 39.6514 23.9306 39.7599 24.301 39.8889C25.0416 40.147 26.0348 40.4874 27.1009 40.8466L27.1011 40.8466L30.9476 42.1561M53.8214 25.756C54.3751 25.6213 55.0486 25.8084 55.4826 26.22C55.8343 26.5567 56.0139 26.9757 56.0139 27.4996C56.0139 27.8064 55.1908 31.66 53.2752 40.3702L27.085 40.894L30.9536 42.2109M35.4484 47.707L35.3985 47.7034M35.4484 47.707C35.4484 47.707 35.4484 47.707 35.4484 47.707L35.3985 47.7034M35.4484 47.707C35.5681 46.0566 35.6373 45.1598 35.6932 44.6578C35.7213 44.4064 35.7458 44.2566 35.7709 44.1616C35.7955 44.0689 35.8197 44.0321 35.8459 44.0043M35.3985 47.7034C35.6379 44.4034 35.6754 44.1116 35.8101 43.9694M35.8459 44.0043C35.8457 44.0045 35.8456 44.0046 35.8454 44.0048L35.8101 43.9694M35.8459 44.0043C35.9378 43.9133 39.0597 41.0378 42.788 37.6083L42.7881 37.6083C45.104 35.4757 46.801 33.9004 47.919 32.846C48.4779 32.3188 48.8924 31.9217 49.1672 31.6501C49.3046 31.5144 49.4075 31.4097 49.4762 31.3356C49.5105 31.2986 49.5369 31.2686 49.555 31.2458C49.564 31.2345 49.5717 31.224 49.5774 31.2147C49.5793 31.2116 49.5813 31.2082 49.5831 31.2046C49.584 31.2028 49.5848 31.2011 49.5856 31.1993C49.5876 31.1946 49.5912 31.1852 49.5912 31.1737C49.5912 31.1139 49.5763 31.0603 49.5368 31.0238C49.4975 30.9874 49.4441 30.9774 49.3883 30.9816M35.8459 44.0043C35.846 44.0042 35.8462 44.004 35.8463 44.0038L35.8101 43.9694M35.8101 43.9694L49.3883 30.9816M49.3883 30.9816C49.3784 30.9822 49.37 30.9853 49.3674 30.9863C49.3622 30.9881 49.3565 30.9906 49.3506 30.9933C49.3386 30.9987 49.3231 31.0064 49.3044 31.0161C49.2669 31.0357 49.2143 31.0645 49.1478 31.102C49.0146 31.1769 48.8239 31.2873 48.5823 31.4293C48.0988 31.7132 47.4104 32.1237 46.5681 32.6302C44.8834 33.6433 42.5822 35.0408 40.0716 36.5786M49.3883 30.9816C49.3881 30.9816 49.3879 30.9816 49.3877 30.9816L49.3915 31.0315C49.3017 31.0315 45.1188 33.5457 40.0978 36.6212M40.0716 36.5786L40.0717 36.5786L40.0978 36.6212M40.0716 36.5786L40.0978 36.6212M40.0716 36.5786L30.9476 42.1561M40.0978 36.6212L30.9536 42.2109M30.9536 42.2109L30.9698 42.1636L30.9476 42.1561M30.9536 42.2109L30.9276 42.1683L30.9476 42.1561" fill="#404040" stroke="#404040" stroke-width="0.1"/>
</svg>
