<svg width="49" height="49" viewBox="0 0 49 49" fill="none" xmlns="http://www.w3.org/2000/svg">
<circle cx="24.6464" cy="24.2167" r="23.7167" stroke="#404040"/>
<path d="M33.4028 15.9389L33.4146 15.9875C33.7415 15.908 34.143 16.0188 34.4011 16.2636C34.6095 16.4632 34.7159 16.7104 34.7159 17.0229C34.7159 17.0415 34.7089 17.095 34.6923 17.1909C34.6761 17.2846 34.6515 17.4146 34.6183 17.5824C34.5518 17.9181 34.4506 18.4045 34.3122 19.0543C34.0355 20.3538 33.6098 22.3065 33.0143 25.0141C32.5468 27.1378 32.1165 29.0801 31.7995 30.4978C31.6411 31.2067 31.511 31.7844 31.4187 32.188C31.3726 32.3898 31.336 32.548 31.3101 32.6573C31.2971 32.712 31.2868 32.7542 31.2794 32.7835C31.2757 32.7981 31.2727 32.8092 31.2706 32.8169L31.2683 32.8247C31.2341 32.89 31.1689 32.972 31.0924 33.0484C31.0153 33.1256 30.9309 33.1928 30.8625 33.2292C30.7709 33.277 30.6215 33.3012 30.4673 33.2972C30.3128 33.2933 30.1662 33.2613 30.0794 33.2076L30.0782 33.2068L30.0782 33.2069C30.063 33.198 30.01 33.1609 29.922 33.0971C29.8354 33.0343 29.7175 32.9476 29.5747 32.8418C29.2891 32.6302 28.904 32.3424 28.4706 32.0168C27.6036 31.3656 26.543 30.5631 25.6964 29.9165L25.6963 29.9165L25.1287 29.4839L25.0943 29.4576L25.0634 29.4879L23.691 30.8324L23.691 30.8325C23.0461 31.4657 22.7008 31.8017 22.4969 31.9796C22.3947 32.0687 22.3309 32.1156 22.2847 32.1404C22.2413 32.1636 22.2139 32.1673 22.1814 32.1673C22.1023 32.1673 22.0141 32.131 21.9452 32.0759C21.8748 32.0196 21.836 31.9534 21.836 31.9009L21.836 31.9008L21.836 31.9006L21.836 31.8995L21.8362 31.8958L21.8368 31.8834L21.8393 31.8415C21.8415 31.8063 21.8447 31.7571 21.8489 31.6954C21.8573 31.572 21.8693 31.3991 21.8841 31.1892C21.9138 30.7693 21.9545 30.2018 21.9987 29.5877M33.4028 15.9389L21.9488 29.5841M33.4028 15.9389L33.4146 15.9875C33.4153 15.9873 33.4144 15.9876 33.4105 15.9888L33.3968 15.9935C33.3852 15.9975 33.3692 16.0033 33.3487 16.0107C33.3078 16.0256 33.2498 16.047 33.1758 16.0746C33.028 16.1297 32.8166 16.2092 32.5507 16.3097C32.0189 16.5106 31.2694 16.7953 30.3746 17.1359C28.5851 17.817 26.2148 18.722 23.8439 19.6289C21.473 20.5358 19.1015 21.4446 17.3097 22.1334C16.4138 22.4778 15.6628 22.7671 15.1293 22.9737C14.8625 23.077 14.6502 23.1596 14.5013 23.218C14.4268 23.2472 14.3683 23.2704 14.3268 23.287C14.3061 23.2954 14.2897 23.302 14.2778 23.307L14.2636 23.313L14.2594 23.3148C14.2584 23.3153 14.258 23.3155 14.2581 23.3155C14.0711 23.411 13.9713 23.6337 13.9719 23.8669C13.9724 24.1 14.0732 24.3242 14.2629 24.4221L14.2635 24.4225C14.2687 24.4252 14.2906 24.4343 14.3325 24.4502C14.3727 24.4654 14.428 24.4857 14.4968 24.5106C14.6344 24.5602 14.8253 24.6276 15.0555 24.7078C15.5159 24.8682 16.1333 25.0799 16.7961 25.3031L16.7962 25.3032L19.1793 26.1144L24.8444 22.6514C26.4053 21.6953 27.836 20.8264 28.8835 20.1965C29.4072 19.8816 29.8352 19.6263 30.1359 19.4498C30.2862 19.3615 30.4049 19.2928 30.4878 19.2461C30.5292 19.2228 30.5621 19.2048 30.5857 19.1925C30.5974 19.1864 30.6075 19.1814 30.6153 19.1778C30.6192 19.176 30.6233 19.1743 30.6272 19.1729L30.6275 19.1728C30.6294 19.1721 30.6365 19.1695 30.6452 19.1689M33.4028 15.9389C33.747 15.8552 34.1658 15.9715 34.4356 16.2274C34.6542 16.4367 34.7659 16.6972 34.7659 17.0229C34.7659 17.2136 34.2541 19.6096 33.0632 25.0248L30.6452 19.1689M21.9987 29.5877L21.9488 29.5841M21.9987 29.5877C21.9987 29.5877 21.9987 29.5877 21.9987 29.5877L21.9488 29.5841M21.9987 29.5877C22.0732 28.5614 22.1161 28.0043 22.1509 27.6927C22.1683 27.5365 22.1834 27.4446 22.1987 27.3869C22.2133 27.3317 22.227 27.3119 22.2405 27.2975M21.9488 29.5841C22.0977 27.5324 22.121 27.351 22.2047 27.2626M22.2405 27.2975C22.2403 27.2977 22.2402 27.2978 22.2401 27.298L22.2047 27.2626M22.2405 27.2975C22.3007 27.2381 24.2397 25.4522 26.5559 23.3217L26.5559 23.3217C27.9958 21.9957 29.0509 21.0163 29.7461 20.3607C30.0936 20.0329 30.3514 19.7859 30.5225 19.6169C30.6079 19.5324 30.6721 19.4671 30.7151 19.4207C30.7365 19.3976 30.7534 19.3785 30.7651 19.3638C30.7708 19.3565 30.7762 19.3493 30.7803 19.3427C30.7823 19.3393 30.7847 19.3352 30.7867 19.3305C30.7883 19.3268 30.7917 19.3182 30.7917 19.3072C30.7917 19.2673 30.7817 19.2278 30.7518 19.2001C30.722 19.1725 30.6826 19.1661 30.6452 19.1689M22.2405 27.2975C22.2407 27.2973 22.2408 27.2972 22.241 27.297L22.2047 27.2626M22.2047 27.2626L30.6452 19.1689" fill="#404040" stroke="#404040" stroke-width="0.1"/>
</svg>
