<svg width="79" height="78" viewBox="0 0 79 78" fill="none" xmlns="http://www.w3.org/2000/svg">
<path d="M20.4676 35.7836L20.4676 35.7834C21.0498 32.4981 22.4157 29.4819 24.4755 26.9286C25.199 26.0332 26.6853 24.5689 27.5576 23.8902C30.3192 21.7548 33.476 20.4335 36.9239 19.9855C37.9971 19.8513 40.6041 19.8513 41.7378 19.9855C44.6485 20.3513 47.3799 21.3517 49.8353 22.9643C54.5372 26.0552 57.6568 31.0574 58.3434 36.5968C58.4925 37.8129 58.4925 40.1665 58.3434 41.3751M20.4676 35.7836L58.393 41.3812M20.4676 35.7836C20.3635 36.3636 20.2906 37.3542 20.2607 38.3614C20.2308 39.3684 20.244 40.3874 20.311 41.024C20.6319 44.0029 21.6693 46.9221 23.2812 49.4005C24.0127 50.5205 24.6541 51.3188 25.6546 52.3421L25.6547 52.3421C28.7818 55.5525 32.7296 57.4935 37.2228 58.0162L37.2229 58.0162C38.2211 58.1354 40.6563 58.1131 41.7381 57.9863L20.4676 35.7836ZM58.3434 41.3751L58.393 41.3812M58.3434 41.3751C58.3434 41.375 58.3434 41.375 58.3434 41.375L58.393 41.3812M58.3434 41.3751C57.9851 44.2495 56.985 47.0042 55.4179 49.4005L55.4598 49.4278C57.0311 47.0251 58.0338 44.263 58.393 41.3812M32.9992 34.1792L32.9992 34.1792C32.8051 33.6116 32.6859 33.2834 32.5722 33.0722C32.5148 32.9656 32.458 32.8872 32.3926 32.822C32.3275 32.7571 32.2554 32.707 32.1698 32.6556C32.0532 32.5833 31.9497 32.5442 31.7037 32.5231C31.4607 32.5023 31.0729 32.4986 30.3853 32.4986H28.8588H28.8381L28.8235 32.5132L28.6065 32.7303L28.606 32.7307C28.5316 32.8071 28.473 32.8791 28.4357 32.9635C28.398 33.0487 28.3839 33.1428 28.3918 33.2611C28.4073 33.4935 28.5091 33.8316 28.6991 34.4057L28.6992 34.406C29.7936 37.6451 31.7951 41.0285 33.7178 42.8843C35.0024 44.1243 36.3642 44.9228 37.8183 45.292C38.4073 45.4431 38.7262 45.4732 39.5815 45.4732H40.6216H40.6407L40.655 45.4605L40.9393 45.206L40.9398 45.2055L41.2167 44.951L41.2323 44.9367L41.2328 44.9154L41.2702 43.381L41.2702 43.3808C41.2852 42.6952 41.2983 42.3102 41.3233 42.0789C41.348 41.8494 41.3837 41.7812 41.4369 41.7217C41.5475 41.5996 41.7207 41.5589 41.9606 41.6091C42.201 41.6594 42.4989 41.7996 42.8427 42.0255C43.5296 42.4768 44.3867 43.261 45.3131 44.311C45.3361 44.3372 45.3586 44.3628 45.3806 44.3879C45.8448 44.9172 46.0891 45.1958 46.4445 45.335C46.6309 45.4081 46.8454 45.4422 47.1335 45.4584C47.3995 45.4734 47.7319 45.4733 48.1669 45.4732C48.2027 45.4732 48.2392 45.4732 48.2764 45.4732H49.8403H49.861L49.8756 45.4586L50.0926 45.2415C50.186 45.1481 50.2571 45.0591 50.2966 44.961C50.3368 44.8611 50.3427 44.7559 50.3136 44.6332C50.2848 44.512 50.2216 44.3733 50.1237 44.2043C50.0255 44.0349 49.8908 43.8323 49.7166 43.5831M32.9992 34.1792L47.2438 40.715L47.2783 40.6788C48.0967 41.46 48.9369 42.4581 49.7166 43.5831M32.9992 34.1792C33.6188 35.9939 34.4917 37.6349 35.4373 38.7819C35.8441 39.2748 36.1907 39.594 36.4642 39.7399C36.6008 39.8127 36.714 39.8395 36.8047 39.8283C36.8928 39.8174 36.9665 39.7699 37.0251 39.6776L37.0257 39.6768M32.9992 34.1792L37.0257 39.6768M49.7166 43.5831L49.6757 43.6118L49.7168 43.5833C49.7167 43.5833 49.7167 43.5832 49.7166 43.5831ZM37.0257 39.6768C37.0692 39.6115 37.0996 39.5058 37.1137 39.1523C37.1277 38.8021 37.1259 38.2196 37.1146 37.2125V37.2124M37.0257 39.6768L37.1146 37.2124M37.1146 37.2124C37.1034 36.1112 37.0959 35.5312 37.0708 35.1757C37.0459 34.8237 37.0041 34.696 36.9238 34.4986L36.9237 34.4986M37.1146 37.2124L36.9237 34.4986M36.9237 34.4986C36.8282 34.2633 36.6209 33.9003 36.4588 33.6866L36.4586 33.6863M36.9237 34.4986L36.4586 33.6863M36.4586 33.6863C36.2926 33.4636 36.1929 33.274 36.1677 33.1062C36.1417 32.9337 36.195 32.7891 36.3211 32.6629C36.3601 32.624 36.3997 32.5914 36.4711 32.5675C36.5393 32.5446 36.6349 32.5301 36.7853 32.5202C37.0867 32.5004 37.6258 32.4986 38.6462 32.4986H40.7862H40.807M36.4586 33.6863L40.807 32.4986M40.807 32.4986L40.8216 32.5132M40.807 32.4986L40.8216 32.5132M40.8216 32.5132L41.0386 32.7303L41.2556 32.9474L41.2702 32.962M40.8216 32.5132L41.2702 32.962M41.2702 32.962V32.9827M41.2702 32.962V32.9827M41.2702 32.9827V35.7747M41.2702 32.9827V35.7747M41.2702 35.7747C41.2702 37.0215 41.274 37.7201 41.2917 38.1229M41.2702 35.7747L41.2917 38.1229M41.2917 38.1229C41.3006 38.3246 41.3129 38.4496 41.3292 38.5312M41.2917 38.1229L41.3292 38.5312M41.3292 38.5312C41.3454 38.6115 41.3646 38.6453 41.3848 38.6683M41.3292 38.5312L41.3848 38.6683M41.3848 38.6683C41.47 38.7632 41.5757 38.799 41.7079 38.7748C41.8443 38.75 42.0103 38.6608 42.2059 38.4983C43.0805 37.7718 43.9371 36.5223 45.0667 34.3148L41.3848 38.6683ZM49.7482 32.7001L49.7492 32.7011L49.7131 32.7357L49.7472 32.6992C49.7475 32.6995 49.7479 32.6998 49.7482 32.7001Z" fill="#404040" stroke="black" stroke-width="0.1"/>
<circle cx="39.3997" cy="38.9515" r="38.4515" stroke="#404040"/>
</svg>
