<svg width="50" height="49" viewBox="0 0 50 49" fill="none" xmlns="http://www.w3.org/2000/svg">
<circle cx="25.0761" cy="24.2167" r="23.7167" stroke="#404040"/>
<path d="M17.5789 16.2322L17.5789 16.2322C19.2089 14.6762 21.1532 13.7365 23.3899 13.4216C23.3899 13.4216 23.3899 13.4216 23.39 13.4216L17.5789 16.2322ZM17.5789 16.2322C16.1808 17.5655 15.19 19.2645 14.7084 21.149C14.6251 21.4821 14.5232 22.0151 14.4815 22.3249C14.3983 22.9819 14.3845 24.3359 14.4537 24.927C14.588 26.0197 14.9401 27.2379 15.4168 28.2284L15.4168 28.2284M17.5789 16.2322L15.4168 28.2284M15.4168 28.2284L15.6959 28.81L15.7037 28.8262M15.4168 28.2284L15.7037 28.8262M15.7037 28.8262L15.6994 28.8437M15.7037 28.8262L15.6994 28.8437M15.6994 28.8437L15.0434 31.4768C14.8643 32.2002 14.7039 32.8617 14.5906 33.3441C14.5339 33.5854 14.489 33.7816 14.4595 33.9182C14.4456 33.9828 14.4352 34.0336 14.4286 34.0695M15.6994 28.8437L14.4286 34.0695M14.4286 34.0695C14.4652 34.0632 14.5175 34.053 14.5839 34.0393C14.7222 34.0108 14.9203 33.9672 15.1635 33.912C15.65 33.8016 16.3162 33.6446 17.0441 33.4679L17.0441 33.4679L19.6959 32.8259L19.7129 32.8217L19.7288 32.8291L20.2778 33.085L20.278 33.0851C21.8066 33.8077 23.0833 34.0945 24.788 34.0945C26.4463 34.0945 27.8113 33.789 29.2465 33.1039C32.3348 31.6222 34.4137 28.8677 35.0343 25.4358L35.0343 25.4356C35.0963 25.1003 35.1335 24.5327 35.1423 23.9483C35.151 23.3642 35.1312 22.768 35.0804 22.376L35.0804 22.3759C34.9323 21.2092 34.5944 20.1028 34.0527 19.0379L34.0526 19.0378C33.5108 17.9634 32.9929 17.2559 32.1219 16.3802C31.2462 15.5092 30.5386 14.9913 29.4643 14.4495L29.4641 14.4494C28.4176 13.9169 27.3019 13.5698 26.1773 13.4263L14.4286 34.0695ZM22.6903 22.221L22.6904 22.2208C22.9286 21.9453 23.0595 21.7437 23.0614 21.4732C23.0632 21.2091 22.9414 20.8859 22.7075 20.3672C22.7075 20.3672 22.7075 20.3672 22.7075 20.3671L22.6619 20.3877L22.6903 22.221ZM22.6903 22.221C22.5658 22.364 22.474 22.4757 22.411 22.5722C22.3483 22.6684 22.3165 22.7462 22.3086 22.8214C22.3008 22.8962 22.3161 22.9741 22.3577 23.0713C22.3997 23.1693 22.4669 23.2838 22.56 23.4316L22.56 23.4316M22.6903 22.221L22.56 23.4316M22.56 23.4316C23.3466 24.6855 24.3577 25.5796 25.4573 26.0029C25.7611 26.1197 25.9401 26.1578 26.0787 26.1167C26.2156 26.0762 26.3268 25.9542 26.4805 25.7026C26.632 25.4495 26.7978 25.2676 26.9872 25.1573C27.1776 25.0464 27.388 25.0101 27.6232 25.0416L27.6232 25.0416M22.56 23.4316L27.6232 25.0416M27.6232 25.0416L27.6242 25.0417M27.6232 25.0416L27.6242 25.0417M27.6242 25.0417C27.6916 25.0521 27.831 25.1012 28.0054 25.1729C28.1822 25.2454 28.4007 25.3436 28.6295 25.4557C29.062 25.6672 29.3413 25.823 29.5248 25.9724C29.7112 26.1242 29.7997 26.2703 29.8514 26.4597C29.9402 26.7855 29.8331 27.1908 29.6152 27.5569C29.3965 27.9243 29.0607 28.262 28.6763 28.453L28.6761 28.4531L27.6242 25.0417ZM20.0326 23.4518L20.0327 23.452C20.3352 23.9398 20.882 24.6136 21.473 25.2564C22.0642 25.8994 22.7027 26.5148 23.1899 26.8849C24.8099 28.1174 26.3656 28.71 27.8464 28.649C27.8465 28.649 27.8465 28.649 27.8466 28.649L27.8445 28.599L20.0326 23.4518ZM20.0326 23.4518C19.1729 22.0519 19.1549 20.5542 20.0075 19.4317L20.0076 19.4315M20.0326 23.4518L20.0076 19.4315M20.0076 19.4315C20.1074 19.3009 20.2238 19.1785 20.3387 19.0802C20.4529 18.9826 20.5688 18.906 20.6678 18.8705L20.6684 18.8703M20.0076 19.4315L20.6684 18.8703M20.6684 18.8703C20.7087 18.8564 20.7678 18.8483 20.8336 18.844M20.6684 18.8703L20.8336 18.844M20.8336 18.844C20.9007 18.8396 20.9789 18.8391 21.0598 18.842M20.8336 18.844L21.0598 18.842M21.0598 18.842C21.2209 18.8479 21.3974 18.8679 21.5213 18.9019L21.0598 18.842ZM35.13 22.3696C34.9812 21.1972 34.6415 20.0853 34.0972 19.0153L35.0835 25.4447C35.2091 24.7655 35.2324 23.1605 35.13 22.3696ZM22.2397 19.3899L22.2398 19.3902L21.5213 18.9019C21.8692 18.9972 22.0962 19.1475 22.2397 19.3899Z" fill="#404040" stroke="#404040" stroke-width="0.1"/>
</svg>
